<svg width="27" height="26" viewBox="0 0 27 26" fill="none" xmlns="http://www.w3.org/2000/svg">
<path fill-rule="evenodd" clip-rule="evenodd" d="M6.28594 0.397864C11.0718 -0.132621 15.9016 -0.132621 20.6875 0.397864C23.3373 0.694867 25.4751 2.78162 25.786 5.44073C26.3536 10.2943 26.3536 15.1975 25.786 20.0511C25.6287 21.3432 25.0396 22.5443 24.1141 23.4596C23.1887 24.3749 21.9812 24.9508 20.6875 25.094C15.9017 25.6261 11.0717 25.6261 6.28594 25.094C4.9922 24.9508 3.78473 24.3749 2.8593 23.4596C1.93387 22.5443 1.34472 21.3432 1.18739 20.0511C0.619829 15.198 0.619829 10.2953 1.18739 5.44227C1.34466 4.15042 1.93358 2.94953 2.8587 2.03423C3.78382 1.11894 4.99093 0.542876 6.28439 0.399411L6.28594 0.397864ZM8.02619 7.28616C8.24372 7.0689 8.5386 6.94687 8.84604 6.94687C9.15349 6.94687 9.44836 7.0689 9.6659 7.28616L13.4867 11.107L17.3075 7.28616C17.4137 7.17218 17.5418 7.08075 17.6841 7.01734C17.8265 6.95393 17.9801 6.91984 18.1359 6.91709C18.2916 6.91434 18.4464 6.943 18.5908 7.00135C18.7353 7.0597 18.8665 7.14655 18.9767 7.25671C19.0869 7.36688 19.1737 7.49811 19.2321 7.64257C19.2904 7.78703 19.3191 7.94177 19.3163 8.09754C19.3136 8.25332 19.2795 8.40695 19.2161 8.54926C19.1527 8.69157 19.0612 8.81965 18.9472 8.92587L15.1264 12.7467L18.9472 16.5675C19.1522 16.7874 19.2637 17.0783 19.2584 17.3789C19.2531 17.6794 19.1314 17.9662 18.9188 18.1788C18.7062 18.3913 18.4195 18.5131 18.1189 18.5184C17.8184 18.5237 17.5275 18.4121 17.3075 18.2072L13.4867 14.3864L9.6659 18.2072C9.55968 18.3212 9.4316 18.4126 9.28929 18.476C9.14697 18.5394 8.99335 18.5735 8.83757 18.5763C8.68179 18.579 8.52706 18.5504 8.3826 18.492C8.23814 18.4337 8.10691 18.3468 7.99674 18.2367C7.88657 18.1265 7.79972 17.9953 7.74137 17.8508C7.68302 17.7063 7.65437 17.5516 7.65712 17.3958C7.65986 17.2401 7.69396 17.0864 7.75737 16.9441C7.82078 16.8018 7.91221 16.6737 8.02619 16.5675L11.847 12.7467L8.02619 8.92587C7.80893 8.70834 7.6869 8.41346 7.6869 8.10602C7.6869 7.79857 7.80893 7.5037 8.02619 7.28616Z" fill="#FD4417"/>
</svg>
