<svg width="14" height="14" viewBox="0 0 14 14" fill="none" xmlns="http://www.w3.org/2000/svg">
<path d="M7.00015 0.5C3.41032 0.5 0.500153 3.41017 0.500153 7C0.500153 10.59 3.41032 13.5 7.00015 13.5C10.5902 13.5 13.5002 10.59 13.5002 7C13.5002 3.41017 10.5902 0.5 7.00015 0.5ZM7.00015 12.7003C3.86411 12.7003 1.31265 10.136 1.31265 6.99997C1.31265 3.86393 3.86411 1.31247 7.00015 1.31247C10.1362 1.31247 12.6877 3.86394 12.6877 6.99997C12.6877 10.136 10.1362 12.7003 7.00015 12.7003ZM9.8439 6.59375H7.4064V4.15625C7.4064 3.932 7.2244 3.75 7.00015 3.75C6.7759 3.75 6.5939 3.932 6.5939 4.15625V6.59375H4.1564C3.93215 6.59375 3.75015 6.77575 3.75015 7C3.75015 7.22425 3.93215 7.40625 4.1564 7.40625H6.5939V9.84375C6.5939 10.068 6.7759 10.25 7.00015 10.25C7.2244 10.25 7.4064 10.068 7.4064 9.84375V7.40625H9.8439C10.0682 7.40625 10.2502 7.22425 10.2502 7C10.2502 6.77575 10.0682 6.59375 9.8439 6.59375Z" fill="white"/>
</svg>
