<svg width="27" height="27" viewBox="0 0 27 27" fill="none" xmlns="http://www.w3.org/2000/svg">
<path fill-rule="evenodd" clip-rule="evenodd" d="M24.3 3.6H21.6V0H19.8V3.6H7.2V0H5.4V3.6H2.7C1.98392 3.6 1.29716 3.88446 0.790812 4.39081C0.284463 4.89716 0 5.58392 0 6.3L0 24.3C0 25.0161 0.284463 25.7028 0.790812 26.2092C1.29716 26.7155 1.98392 27 2.7 27H24.3C25.0161 27 25.7028 26.7155 26.2092 26.2092C26.7155 25.7028 27 25.0161 27 24.3V6.3C27 5.58392 26.7155 4.89716 26.2092 4.39081C25.7028 3.88446 25.0161 3.6 24.3 3.6ZM12.6432 20.2176L19.5768 12.2922L18.2232 11.1078L12.5568 17.5842L9.6372 14.6628L8.3628 15.9372L12.6432 20.2176Z" fill="#20744A"/>
</svg>
