<svg width="29" height="26" viewBox="0 0 29 26" fill="none" xmlns="http://www.w3.org/2000/svg">
<rect x="0.75" y="1.37134" width="27.5" height="23.875" rx="4.25" stroke="#6C6C6C" stroke-width="1.5"/>
<path d="M16.7964 13.2568C17.6484 13.4008 18.3384 13.7008 18.8664 14.1568C19.3944 14.6128 19.6584 15.3208 19.6584 16.2808C19.6584 18.6328 18.0204 19.8088 14.7444 19.8088H11.3244V7.40684H14.2584C15.8304 7.40684 17.0304 7.66484 17.8584 8.18084C18.6984 8.69684 19.1184 9.48284 19.1184 10.5388C19.1184 11.2588 18.8904 11.8588 18.4344 12.3388C17.9904 12.8188 17.4444 13.1248 16.7964 13.2568ZM13.0344 8.75684V12.6628H14.9064C15.6264 12.6628 16.2144 12.4888 16.6704 12.1408C17.1384 11.7928 17.3724 11.3008 17.3724 10.6648C17.3724 9.94484 17.1264 9.44684 16.6344 9.17084C16.1544 8.89484 15.4224 8.75684 14.4384 8.75684H13.0344ZM14.7444 18.4408C15.7524 18.4408 16.5204 18.2908 17.0484 17.9908C17.5884 17.6908 17.8584 17.1208 17.8584 16.2808C17.8584 15.4648 17.6004 14.8768 17.0844 14.5168C16.5684 14.1568 15.8964 13.9768 15.0684 13.9768H13.0344V18.4408H14.7444Z" fill="#6C6C6C"/>
</svg>
