<?xml version="1.0" encoding="UTF-8" standalone="no"?>
<!DOCTYPE svg PUBLIC "-//W3C//DTD SVG 1.1//EN" "http://www.w3.org/Graphics/SVG/1.1/DTD/svg11.dtd">
<svg width="100%" height="100%" viewBox="0 0 28 34" version="1.1" xmlns="http://www.w3.org/2000/svg" xmlns:xlink="http://www.w3.org/1999/xlink" xml:space="preserve" xmlns:serif="http://www.serif.com/" style="fill-rule:evenodd;clip-rule:evenodd;stroke-linejoin:round;stroke-miterlimit:2;">
    <g id="Composite-Path" serif:id="Composite Path" transform="matrix(1,0,0,1,-2720.85,-132.358)">
        <path d="M2746.38,141.618C2746.33,141.08 2745.91,140.668 2745.4,140.666L2740.49,140.665L2740.49,138.594C2740.49,135.153 2737.85,132.36 2734.6,132.358C2731.36,132.358 2728.71,135.149 2728.71,138.59L2728.71,140.661L2723.8,140.659C2723.29,140.659 2722.87,141.072 2722.82,141.608L2720.85,164.454C2720.83,164.747 2720.92,165.033 2721.1,165.25C2721.29,165.463 2721.55,165.591 2721.83,165.591L2747.35,165.6C2747.63,165.6 2747.89,165.472 2748.08,165.259C2748.26,165.042 2748.36,164.756 2748.33,164.463L2746.38,141.618ZM2730.67,138.591C2730.67,136.298 2732.44,134.437 2734.6,134.438C2736.77,134.438 2738.53,136.301 2738.52,138.594L2738.52,140.665L2730.67,140.662L2730.67,138.591ZM2722.9,163.512L2724.69,142.741L2728.7,142.743L2728.7,145.105C2728.12,145.466 2727.73,146.127 2727.73,146.895C2727.73,148.041 2728.6,148.976 2729.69,148.977C2730.77,148.977 2731.65,148.042 2731.65,146.897C2731.65,146.129 2731.26,145.467 2730.67,145.106L2730.67,142.744L2738.52,142.747L2738.52,145.108C2737.94,145.47 2737.54,146.131 2737.54,146.898C2737.54,148.044 2738.42,148.98 2739.5,148.981C2740.59,148.981 2741.47,148.045 2741.47,146.9C2741.47,146.133 2741.07,145.471 2740.49,145.109L2740.49,142.748L2744.5,142.748L2746.28,163.521L2722.9,163.512Z" style="fill:rgb(13,27,33);"/>
    </g>
</svg>
