<svg width="27" height="26" viewBox="0 0 27 26" fill="none" xmlns="http://www.w3.org/2000/svg">
<path fill-rule="evenodd" clip-rule="evenodd" d="M5.52422 0.397864C10.3101 -0.132621 15.1399 -0.132621 19.9258 0.397864C22.5756 0.694867 24.7134 2.78162 25.0243 5.44073C25.5919 10.2943 25.5919 15.1975 25.0243 20.0511C24.867 21.3432 24.2778 22.5443 23.3524 23.4596C22.427 24.3749 21.2195 24.9508 19.9258 25.094C15.14 25.6261 10.31 25.6261 5.52422 25.094C4.23048 24.9508 3.02302 24.3749 2.09758 23.4596C1.17215 22.5443 0.583006 21.3432 0.425669 20.0511C-0.14189 15.198 -0.14189 10.2953 0.425669 5.44227C0.582938 4.15042 1.17186 2.94953 2.09698 2.03423C3.0221 1.11894 4.22921 0.542876 5.52267 0.399411L5.52422 0.397864ZM7.26447 7.28616C7.48201 7.0689 7.77688 6.94687 8.08432 6.94687C8.39177 6.94687 8.68664 7.0689 8.90418 7.28616L12.725 11.107L16.5458 7.28616C16.652 7.17218 16.7801 7.08075 16.9224 7.01734C17.0647 6.95393 17.2184 6.91984 17.3741 6.91709C17.5299 6.91434 17.6847 6.943 17.8291 7.00135C17.9736 7.0597 18.1048 7.14655 18.215 7.25671C18.3251 7.36688 18.412 7.49811 18.4703 7.64257C18.5287 7.78703 18.5573 7.94177 18.5546 8.09754C18.5518 8.25332 18.5178 8.40695 18.4543 8.54926C18.3909 8.69157 18.2995 8.81965 18.1855 8.92587L14.3647 12.7467L18.1855 16.5675C18.3905 16.7874 18.502 17.0783 18.4967 17.3789C18.4914 17.6794 18.3697 17.9662 18.1571 18.1788C17.9445 18.3913 17.6578 18.5131 17.3572 18.5184C17.0566 18.5237 16.7657 18.4121 16.5458 18.2072L12.725 14.3864L8.90418 18.2072C8.79796 18.3212 8.66988 18.4126 8.52757 18.476C8.38525 18.5394 8.23163 18.5735 8.07585 18.5763C7.92007 18.579 7.76534 18.5504 7.62088 18.492C7.47642 18.4337 7.34519 18.3468 7.23502 18.2367C7.12486 18.1265 7.03801 17.9953 6.97966 17.8508C6.9213 17.7063 6.89265 17.5516 6.8954 17.3958C6.89815 17.2401 6.93224 17.0864 6.99565 16.9441C7.05906 16.8018 7.15049 16.6737 7.26447 16.5675L11.0853 12.7467L7.26447 8.92587C7.04721 8.70834 6.92518 8.41346 6.92518 8.10602C6.92518 7.79857 7.04721 7.5037 7.26447 7.28616Z" fill="#FD4417"/>
</svg>
