<svg xmlns="http://www.w3.org/2000/svg" width="11.756" height="11.928" viewBox="0 0 11.756 11.928">
  <path id="Path_31" data-name="Path 31" d="M28.3,29.691l3.611,3.63a1.058,1.058,0,0,0,.768.307,1.142,1.142,0,0,0,.768-.307,1.058,1.058,0,0,0,.307-.768,1.142,1.142,0,0,0-.307-.768l-3.63-3.611,3.63-3.63a1.058,1.058,0,0,0,.307-.768,1.142,1.142,0,0,0-.307-.768,1.058,1.058,0,0,0-.768-.307,1.142,1.142,0,0,0-.768.307L28.3,26.637,24.844,23.18a1.058,1.058,0,0,0-.768-.307h0a1.142,1.142,0,0,0-.768.307,1.058,1.058,0,0,0-.307.768,1.142,1.142,0,0,0,.307.768l3.457,3.457-3.457,3.457A1.058,1.058,0,0,0,23,32.4a1.066,1.066,0,0,0,1.825.768L28.3,29.691" transform="translate(-22.5 -22.2)" fill="#f79e88" stroke="#f79e88" stroke-width="1"/>
</svg>
