<svg width="131" height="131" viewBox="0 0 131 131" fill="none" xmlns="http://www.w3.org/2000/svg">
<circle cx="65.5" cy="65.5" r="65.5" fill="#F27766"/>
<path d="M93.7875 48.2875L75.675 30.175C74.2875 28.7875 72.375 28 70.3875 28H43.5C39.375 28 36.0375 31.375 36.0375 35.5L36 95.5C36 99.625 39.3375 103 43.4625 103H88.5C92.625 103 96 99.625 96 95.5V53.6125C96 51.625 95.2125 49.7125 93.7875 48.2875ZM76.5 76.75H69.75V88C69.75 90.0625 68.0625 91.75 66 91.75C63.9375 91.75 62.25 90.0625 62.25 88V76.75H55.5375C53.85 76.75 53.025 74.725 54.225 73.5625L64.725 63.1C65.475 62.3875 66.6375 62.3875 67.3875 63.1L77.85 73.5625C78.975 74.725 78.15 76.75 76.5 76.75ZM73.5 54.25C71.4375 54.25 69.75 52.5625 69.75 50.5V33.625L90.375 54.25H73.5Z" fill="white"/>
</svg>
