<svg width="12" height="8" viewBox="0 0 12 8" fill="none" xmlns="http://www.w3.org/2000/svg">
<path d="M0.264138 0.810525C0.433317 0.641398 0.662742 0.546387 0.901961 0.546387C1.14118 0.546387 1.37061 0.641398 1.53978 0.810525L6.00545 5.27619L10.4711 0.810525C10.6413 0.646191 10.8691 0.555258 11.1057 0.557314C11.3422 0.559369 11.5685 0.654248 11.7358 0.821515C11.903 0.988781 11.9979 1.21505 12 1.45159C12.002 1.68814 11.9111 1.91602 11.7468 2.08617L6.64327 7.18966C6.47409 7.35878 6.24467 7.45379 6.00545 7.45379C5.76623 7.45379 5.5368 7.35878 5.36762 7.18966L0.264138 2.08617C0.0950107 1.91699 0 1.68757 0 1.44835C0 1.20913 0.0950107 0.979704 0.264138 0.810525Z" fill="#4D4D4D"/>
</svg>
