<svg xmlns="http://www.w3.org/2000/svg" width="96.421" height="96.3" viewBox="0 0 96.421 96.3">
  <g id="edit-rsvp" transform="translate(-1933 -7374)">
    <path id="Path_2494" data-name="Path 2494" d="M95.4,25.5s-3.1-14.8-16.5-20C72.5,3,61,1.8,49.7,1.7,38.4,1.8,26.9,3,20.6,5.4c-13.4,5.2-16.5,20-16.5,20A100.972,100.972,0,0,0,1.5,49.8,96.5,96.5,0,0,0,4.1,74.3s3.1,14.8,16.5,20c6.3,2.4,17.8,3.6,29.1,3.7,11.3-.1,22.8-1.2,29.1-3.7,13.4-5.2,16.5-20,16.5-20a100.972,100.972,0,0,0,2.6-24.4A99.69,99.69,0,0,0,95.4,25.5Z" transform="translate(1931.51 7372.3)" fill="#fff"/>
    <g id="Group_2990" data-name="Group 2990" transform="translate(1936.826 6427.413)" opacity="0.5">
      <path id="Path_2495" data-name="Path 2495" d="M52.447,966.587l-2.332,4.049,10.772,6.233,2.332-4.049-10.772-6.233Zm-3.887,6.748-21.378,37.112,10.772,6.233,21.379-37.112L48.56,973.335Zm-22.386,40.128,1.341,8.873,8.337-3.273Z" transform="translate(0)"/>
    </g>
  </g>
</svg>
