<svg width="9" height="9" viewBox="0 0 9 9" fill="none" xmlns="http://www.w3.org/2000/svg">
<path d="M0.494086 5.42442L0.0120625 7.50474C-0.00456569 7.58078 -0.00399566 7.65959 0.0137309 7.73538C0.0314575 7.81118 0.0658928 7.88206 0.114521 7.94285C0.16315 8.00363 0.224743 8.05279 0.294802 8.08672C0.36486 8.12065 0.441614 8.13851 0.519456 8.13898C0.555727 8.14264 0.592275 8.14264 0.628546 8.13898L2.72154 7.65696L6.7401 3.65362L4.49742 1.41602L0.494086 5.42442Z" fill="black"/>
<path d="M8.00528 1.64968L6.50847 0.152874C6.41006 0.0549639 6.27689 0 6.13807 0C5.99925 0 5.86608 0.0549639 5.76767 0.152874L4.93555 0.985L7.17569 3.22514L8.00782 2.39302C8.05651 2.34407 8.09508 2.28601 8.12131 2.22214C8.14754 2.15828 8.16092 2.08987 8.16069 2.02082C8.16045 1.95178 8.1466 1.88346 8.11994 1.81978C8.09327 1.7561 8.05431 1.69829 8.00528 1.64968Z" fill="black"/>
</svg>
