<svg xmlns="http://www.w3.org/2000/svg" width="20" height="22.4" viewBox="0 0 20 22.4">
  <g id="event-h" transform="translate(0 -0.3)">
    <path id="Path_28" data-name="Path 28" d="M13.6,22.7a6.4,6.4,0,1,1,4.525-1.875A6.4,6.4,0,0,1,13.6,22.7Zm0-11.2a4.8,4.8,0,1,0,3.394,1.406A4.8,4.8,0,0,0,13.6,11.5Z"/>
    <path id="Path_29" data-name="Path 29" d="M14.872,18.7,12.8,16.628V13.1h1.6v2.872l1.6,1.6Z"/>
    <path id="Path_30" data-name="Path 30" d="M19.2,3.5a1.6,1.6,0,0,0-1.6-1.6H14.4V.3H12.8V1.9H6.4V.3H4.8V1.9H1.6A1.6,1.6,0,0,0,0,3.5v16a1.6,1.6,0,0,0,1.6,1.6H4.8V19.5H1.6V3.5H4.8V5.1H6.4V3.5h6.4V5.1h1.6V3.5h3.2V8.3h1.6Z"/>
  </g>
</svg>
