<svg xmlns="http://www.w3.org/2000/svg" xmlns:xlink="http://www.w3.org/1999/xlink" width="2001.705" height="1983.844" viewBox="0 0 2001.705 1983.844">
  <defs>
    <linearGradient id="linear-gradient" y1="0.5" x2="1" y2="0.5" gradientUnits="objectBoundingBox">
      <stop offset="0" stop-color="#ffc444"/>
      <stop offset="0.996" stop-color="#f36f56"/>
    </linearGradient>
    <clipPath id="clip-path">
      <path id="Path_25" data-name="Path 25" d="M1279.48,963.4c-7.094-30.017-33.544-245.823-95.744-285.4-70.866-45.084-118.646-10.948-141.181-85.633-35.232-116.726-150.379-206.431-273.117-80.432-121.138,124.358,99.7,516.17,240.179,577.491,115.4,87.751,188.246,84.8,224.228,248.88C1259.042,1453.245,1306.161,1076.262,1279.48,963.4Z" transform="translate(-734.409 -450.803)"/>
    </clipPath>
    <linearGradient id="linear-gradient-2" x1="1.602" y1="1.273" x2="0.015" y2="0.206" gradientUnits="objectBoundingBox">
      <stop offset="0.004" stop-color="#e38ddd"/>
      <stop offset="1" stop-color="#9571f6"/>
    </linearGradient>
    <clipPath id="clip-path-2">
      <path id="Path_31" data-name="Path 31" d="M1156.16,1388.951c-53.689,64.453-113.99,137.6-200.985,64.453-72.425-60.892-117.768-105.023-224.371-81.5s-213.811-18.586-221.532-127.245c-8.122-114.35-151.516-209.855-98.705-317.554,92.026-187.668,287.129,23.25,372.251,150.406s146.145,28.152,232.547-14.89C1133.326,1003.846,1199.535,1336.876,1156.16,1388.951Z" transform="translate(-398.918 -852.608)"/>
    </clipPath>
    <linearGradient id="linear-gradient-3" x1="-0.295" y1="0.838" x2="0.063" y2="0.695" gradientUnits="objectBoundingBox">
      <stop offset="0" stop-color="#ff9085"/>
      <stop offset="1" stop-color="#fb6fbb"/>
    </linearGradient>
    <linearGradient id="linear-gradient-4" x1="0" y1="0.5" x2="1" y2="0.5" xlink:href="#linear-gradient-3"/>
    <linearGradient id="linear-gradient-5" x1="0.659" y1="0.134" x2="1.236" y2="1.599" xlink:href="#linear-gradient-3"/>
    <linearGradient id="linear-gradient-6" x1="0.551" y1="0.271" x2="1.218" y2="1.757" xlink:href="#linear-gradient-3"/>
    <linearGradient id="linear-gradient-7" x1="0.765" y1="1.098" x2="0.889" y2="-0.188" gradientUnits="objectBoundingBox">
      <stop offset="0.004" stop-color="#ebeff2"/>
      <stop offset="1" stop-color="#fff"/>
    </linearGradient>
    <linearGradient id="linear-gradient-8" x1="3.058" y1="0.5" x2="3.943" y2="0.5" xlink:href="#linear-gradient-3"/>
    <linearGradient id="linear-gradient-9" x1="4.069" y1="-3.203" x2="4.4" y2="18.452" xlink:href="#linear-gradient-2"/>
    <linearGradient id="linear-gradient-10" x1="4.182" y1="-3.607" x2="4.517" y2="17.956" xlink:href="#linear-gradient-2"/>
    <linearGradient id="linear-gradient-11" x1="4.297" y1="-4.011" x2="4.636" y2="17.473" xlink:href="#linear-gradient-2"/>
    <linearGradient id="linear-gradient-12" x1="4.414" y1="-4.41" x2="4.757" y2="16.99" xlink:href="#linear-gradient-2"/>
    <linearGradient id="linear-gradient-13" x1="4.533" y1="-4.808" x2="4.879" y2="16.517" xlink:href="#linear-gradient-2"/>
    <linearGradient id="linear-gradient-14" x1="4.653" y1="-5.203" x2="5.003" y2="16.044" xlink:href="#linear-gradient-2"/>
    <linearGradient id="linear-gradient-15" x1="4.775" y1="-5.596" x2="5.129" y2="15.58" xlink:href="#linear-gradient-2"/>
    <linearGradient id="linear-gradient-16" y1="0.5" x2="1" y2="0.5" gradientUnits="objectBoundingBox">
      <stop offset="0" stop-color="#ab316d"/>
      <stop offset="1" stop-color="#792d3d"/>
    </linearGradient>
    <linearGradient id="linear-gradient-26" x1="8.533" y1="-1.073" x2="7.998" y2="-0.128" gradientUnits="objectBoundingBox">
      <stop offset="0" stop-color="#444b8c"/>
      <stop offset="0.996" stop-color="#26264f"/>
    </linearGradient>
    <linearGradient id="linear-gradient-27" x1="10.523" y1="-1.2" x2="9.952" y2="-0.031" xlink:href="#linear-gradient"/>
    <linearGradient id="linear-gradient-28" x1="27.351" y1="-7.9" x2="27.788" y2="-9.876" gradientUnits="objectBoundingBox">
      <stop offset="0" stop-color="#aa80f9"/>
      <stop offset="0.996" stop-color="#6165d7"/>
    </linearGradient>
    <linearGradient id="linear-gradient-29" x1="0.209" y1="0.237" x2="1.245" y2="1.113" xlink:href="#linear-gradient"/>
    <linearGradient id="linear-gradient-30" x1="0.02" y1="1.409" x2="0.797" y2="0.064" gradientUnits="objectBoundingBox">
      <stop offset="0" stop-color="#311944"/>
      <stop offset="1" stop-color="#893976"/>
    </linearGradient>
    <linearGradient id="linear-gradient-31" x1="1.953" y1="-2.281" x2="3.005" y2="-0.832" xlink:href="#linear-gradient-26"/>
    <linearGradient id="linear-gradient-32" x1="-20.398" y1="0.41" x2="-20.398" y2="-0.942" xlink:href="#linear-gradient"/>
    <linearGradient id="linear-gradient-33" x1="2.976" y1="-3.278" x2="4.308" y2="-1.489" xlink:href="#linear-gradient-26"/>
    <linearGradient id="linear-gradient-34" x1="-6.565" y1="-0.514" x2="-5.471" y2="0.793" xlink:href="#linear-gradient-26"/>
    <linearGradient id="linear-gradient-35" x1="-39.204" y1="1.222" x2="-39.204" y2="-0.194" xlink:href="#linear-gradient"/>
    <linearGradient id="linear-gradient-36" x1="1.324" y1="1.09" x2="0.668" y2="-0.252" xlink:href="#linear-gradient-26"/>
    <linearGradient id="linear-gradient-37" x1="-0.055" y1="1.463" x2="0.358" y2="0.747" xlink:href="#linear-gradient-30"/>
    <linearGradient id="linear-gradient-38" x1="-7.636" y1="-1.298" x2="-6.276" y2="0.479" xlink:href="#linear-gradient-26"/>
    <linearGradient id="linear-gradient-39" x1="0.44" y1="0.127" x2="0.601" y2="2.108" xlink:href="#linear-gradient"/>
    <linearGradient id="linear-gradient-40" x1="0.202" y1="-1.683" x2="2.109" y2="12.575" xlink:href="#linear-gradient"/>
    <linearGradient id="linear-gradient-41" x1="0.168" y1="1.313" x2="0.475" y2="0.473" xlink:href="#linear-gradient-30"/>
    <linearGradient id="linear-gradient-42" x1="-26.269" y1="-3.525" x2="-26.036" y2="6.387" gradientUnits="objectBoundingBox">
      <stop offset="0" stop-color="#311944"/>
      <stop offset="1" stop-color="#a03976"/>
    </linearGradient>
    <linearGradient id="linear-gradient-43" x1="-76.054" y1="1.882" x2="-76.409" y2="-8.957" xlink:href="#linear-gradient"/>
    <linearGradient id="linear-gradient-44" x1="-33.988" y1="-1.189" x2="-33.688" y2="2.684" xlink:href="#linear-gradient-42"/>
    <linearGradient id="linear-gradient-45" x1="-38.015" y1="1.268" x2="-38.194" y2="-3.814" xlink:href="#linear-gradient"/>
    <linearGradient id="linear-gradient-46" x1="-6.169" y1="0.544" x2="-4.734" y2="0.424" xlink:href="#linear-gradient-28"/>
    <linearGradient id="linear-gradient-47" x1="-2.526" y1="0.908" x2="-3.24" y2="0.419" gradientUnits="objectBoundingBox">
      <stop offset="0" stop-color="#444b8c"/>
      <stop offset="0.996" stop-color="#3e4177"/>
    </linearGradient>
    <linearGradient id="linear-gradient-48" x1="-16.257" y1="0.693" x2="-14.853" y2="0.332" gradientUnits="objectBoundingBox">
      <stop offset="0" stop-color="#311944"/>
      <stop offset="1" stop-color="#6b3976"/>
    </linearGradient>
    <linearGradient id="linear-gradient-49" x1="-5.342" y1="0.527" x2="-4.3" y2="0.527" xlink:href="#linear-gradient-28"/>
    <linearGradient id="linear-gradient-50" x1="-3.252" y1="0.559" x2="-2.563" y2="0.505" xlink:href="#linear-gradient-28"/>
    <linearGradient id="linear-gradient-51" x1="-3.912" y1="-0.144" x2="-3.701" y2="0.813" xlink:href="#linear-gradient-28"/>
    <linearGradient id="linear-gradient-52" x1="0.118" y1="1.633" x2="0.3" y2="1.891" xlink:href="#linear-gradient-16"/>
    <linearGradient id="linear-gradient-53" x1="0.253" y1="1.775" x2="0.127" y2="1.819" xlink:href="#linear-gradient-16"/>
    <linearGradient id="linear-gradient-54" x1="1.636" y1="0.353" x2="1.376" y2="5.378" xlink:href="#linear-gradient"/>
    <linearGradient id="linear-gradient-55" x1="3.928" y1="-0.208" x2="3.873" y2="4.187" xlink:href="#linear-gradient-16"/>
    <linearGradient id="linear-gradient-56" x1="-41.41" y1="-4.044" x2="-40.431" y2="3.208" xlink:href="#linear-gradient"/>
    <linearGradient id="linear-gradient-57" x1="-7.489" y1="0.893" x2="-7.525" y2="0.043" xlink:href="#linear-gradient-28"/>
    <linearGradient id="linear-gradient-58" x1="-20.871" y1="-0.001" x2="-19.882" y2="2.567" xlink:href="#linear-gradient"/>
    <linearGradient id="linear-gradient-59" x1="1.179" y1="0.677" x2="0.713" y2="0.551" xlink:href="#linear-gradient"/>
    <linearGradient id="linear-gradient-60" x1="1.293" y1="0.657" x2="0.517" y2="0.52" xlink:href="#linear-gradient"/>
    <linearGradient id="linear-gradient-61" x1="0.384" y1="-0.782" x2="0.693" y2="2.635" xlink:href="#linear-gradient"/>
    <linearGradient id="linear-gradient-62" x1="1.297" y1="0.759" x2="0.627" y2="0.535" xlink:href="#linear-gradient"/>
    <linearGradient id="linear-gradient-63" x1="1.493" y1="0.738" x2="0.376" y2="0.495" xlink:href="#linear-gradient"/>
    <linearGradient id="linear-gradient-64" x1="0.473" y1="0.196" x2="0.661" y2="2.281" xlink:href="#linear-gradient"/>
  </defs>
  <g id="Illustration" transform="translate(-398.918 -341.095)">
    <g id="Group_28" data-name="Group 28" transform="translate(398.918 341.095)">
      <path id="Path_19" data-name="Path 19" d="M1251.668,341.248c-238.559,4.051-607.651,91.237-713.893,315.294-37.1,78.253-34.592,193.3-29.568,423.381,1.477,67.626,3.928,166.195,21.119,288.5,35.723,254.061,60.041,427.016,152.075,527.723,230.607,252.345,1063.616,245.054,1419.33-209.25,194.047-247.825,223.9-600.367,46.466-891.723C1951.849,474.389,1571.04,335.822,1251.668,341.248Z" transform="translate(-432.894 -341.095)" fill="#f4f7fa"/>
      <g id="Group_11" data-name="Group 11" transform="translate(0 74.629)">
        <g id="Group_10" data-name="Group 10">
          <g id="Group_9" data-name="Group 9">
            <g id="Group_5" data-name="Group 5" transform="translate(228.408)">
              <path id="Path_20" data-name="Path 20" d="M1230.308,1330.587c4.67,27.008,5.481,49.741,8.817,76.34,97.936-61.185,203.565-102.218,302.971-164.077-128.375-79.377-218.148-96.029-259.024-266.2-19.185-79.86-33.591-242.868-98.583-295.482-74.039-59.939-118.66-10.131-141.672-87.438C1006.85,472.9,892.261,386.884,769.523,512.209,648.378,635.9,868.677,1027.623,1010.1,1090.2,1119.777,1167.551,1205.914,1189.549,1230.308,1330.587Z" transform="translate(-734.419 -450.711)" fill="url(#linear-gradient)"/>
              <g id="Group_4" data-name="Group 4" transform="translate(0 0.062)">
                <g id="Group_3" data-name="Group 3" clip-path="url(#clip-path)">
                  <path id="Path_21" data-name="Path 21" d="M1371.934,1288.544c-27.519-32.523-57.924-63.275-87.329-93.014l-11.145-11.281c-23.611-23.931-44.308-45.765-62.561-65.025-10.267-10.832-19.968-21.065-29.452-30.909-29.044-30.147-49.414-51.177-59.517-61.607-3.377-3.492-5.61-5.794-6.631-6.856C1035.821,937.31,958.18,795.89,916.473,719.918c-4.514-8.231-8.551-15.584-12.057-21.882C844.184,589.827,768.552,484.449,679.63,384.825l1.539-1.375C770.193,483.19,845.913,588.7,906.213,697.042c3.506,6.3,7.543,13.657,12.064,21.888,41.666,75.891,119.218,217.154,198.506,299.5,1.021,1.062,3.247,3.363,6.631,6.849,10.1,10.43,30.473,31.461,59.517,61.607,9.491,9.851,19.192,20.084,29.459,30.923,18.253,19.254,38.936,41.074,62.533,65l11.145,11.281c29.432,29.765,59.871,60.545,87.438,93.129Z" transform="translate(-716.924 -429.305)" fill="#fcfdfe"/>
                  <path id="Path_22" data-name="Path 22" d="M1424.97,1242.1c-49.918-57.032-85.572-144.136-103.11-251.91-14.61-89.773-15.8-191.024-3.261-277.788l2.042.293c-12.513,86.573-11.329,187.593,3.254,277.168,17.477,107.385,52.968,194.136,102.627,250.882Z" transform="translate(-918.12 -534.3)" fill="#fcfdfe"/>
                  <path id="Path_23" data-name="Path 23" d="M1012.895,742.681c-16.224-63.507-24.516-129.437-32.53-193.2C974.878,505.83,969.2,460.7,961.03,416.711l2.029-.381c8.183,44.049,13.861,89.208,19.356,132.882,8.006,63.7,16.292,129.567,32.482,192.944Z" transform="translate(-806.742 -439.8)" fill="#fcfdfe"/>
                  <path id="Path_24" data-name="Path 24" d="M1076.149,1117.858c-71.125-57.066-192.229-101.224-259.195-94.491l-.2-2.049c67.367-6.788,189.213,37.581,260.692,94.933Z" transform="translate(-760.69 -632.681)" fill="#fcfdfe"/>
                </g>
              </g>
            </g>
            <g id="Group_8" data-name="Group 8" transform="translate(0 273.207)">
              <path id="Path_26" data-name="Path 26" d="M782.286,1075.269c80.18,115.535,141.515,56.828,223.091-14.706,35.042,126.2,73.808,247.8,113.574,371.067-55.31,47.065-95.8,79.744-162.886,22.528-75.864-64.712-117.5-104.574-225.024-82.229s-213.7-18.014-221.709-127.511c-8.435-115.229-151.319-208.378-98.787-317.575C502.081,736.568,698.79,954.961,782.286,1075.269Z" transform="translate(-398.936 -852.003)" fill="url(#linear-gradient-2)"/>
              <g id="Group_7" data-name="Group 7" transform="translate(0 0.412)">
                <g id="Group_6" data-name="Group 6" clip-path="url(#clip-path-2)">
                  <path id="Path_27" data-name="Path 27" d="M1053.048,1291.832c-118.428-5.406-216.963-13.2-316.873-59.272C640.56,1188.47,575.61,1124.6,518.986,1018.987c-29.35-54.752-56.576-90.665-94.756-139.207l1.62-1.28c38.248,48.631,65.522,84.612,94.954,139.513C577.2,1123.2,641.86,1186.8,737.039,1230.688c99.57,45.915,197.907,53.689,316.111,59.082Z" transform="translate(-406.997 -860.872)" fill="#fcfdfe"/>
                  <path id="Path_28" data-name="Path 28" d="M1263.921,1727.337l-1.981-.565c10.73-37.506,25.442-70.574,44.982-101.095,9.995-15.611,21.657-28.295,36.1-42.537l1.45,1.47c-14.345,14.147-25.919,26.729-35.811,42.177C1289.227,1657.145,1274.6,1690.028,1263.921,1727.337Z" transform="translate(-674.378 -1085.78)" fill="#fcfdfe"/>
                  <path id="Path_29" data-name="Path 29" d="M577.948,1520.1l-1.2-1.682c84.571-60.45,180.689-91.373,270.625-87.118l-.1,2.063C757.807,1429.113,662.152,1459.913,577.948,1520.1Z" transform="translate(-455.679 -1037.191)" fill="#fcfdfe"/>
                  <path id="Path_30" data-name="Path 30" d="M630.788,1083.193c-5.29-9.15-27.151-95.138-45.846-172.554-18.77-77.736-37.956-161.66-37.574-167.549l2.063.129c-.327,5.018,16.5,79.908,37.52,166.937,18.661,77.28,40.448,163.043,45.622,172.009Z" transform="translate(-446.299 -817.652)" fill="#fcfdfe"/>
                </g>
              </g>
            </g>
          </g>
        </g>
      </g>
      <g id="Group_18" data-name="Group 18" transform="translate(17.216 510.464)">
        <g id="Group_16" data-name="Group 16" transform="translate(0 0)">
          <path id="Path_32" data-name="Path 32" d="M570.809,1121.72,424.583,2059.8c-2.778,18.09,10.124,34.429,26.586,33.653l731.867-34.538Z" transform="translate(-424.205 -1100.72)" fill="url(#linear-gradient-3)"/>
          <g id="Group_15" data-name="Group 15" transform="translate(146.124)">
            <path id="Path_33" data-name="Path 33" d="M1977.975,1131.428,667.419,1090.892c-19.111-.592-31.644,14.045-27.934,32.693L852.071,2191.259c3.711,18.647,21.95,32.666,40.679,31.311l1284-92.789c14.529-1.049,23.631-15.155,20.377-31.509l-186.449-936.4C2007.427,1145.514,1992.8,1131.884,1977.975,1131.428Z" transform="translate(-638.834 -1090.875)" fill="url(#linear-gradient-4)"/>
            <path id="Path_34" data-name="Path 34" d="M1988.358,1131.428,677.809,1090.892c-19.111-.592-31.644,14.045-27.934,32.693L862.461,2191.259c3.71,18.647,21.95,32.666,40.679,31.311l1284-92.789c14.529-1.049,23.631-15.155,20.377-31.509l-186.449-936.4C2017.817,1145.514,2003.186,1131.884,1988.358,1131.428Z" transform="translate(-642.15 -1090.875)" fill="url(#linear-gradient-5)"/>
            <g id="Group_12" data-name="Group 12" transform="translate(7.074)" opacity="0.3">
              <path id="Path_35" data-name="Path 35" d="M1646.342,1697.161c-257.949-140.153-502.4-31.2-678.4-210.979C859.56,1375.481,839.667,1218.743,842.921,1096l-165.112-5.106c-19.111-.592-31.644,14.045-27.934,32.693L862.461,2191.259c3.71,18.647,21.95,32.659,40.679,31.311l1114.078-80.507C1895.44,1877.741,1758.153,1757.917,1646.342,1697.161Z" transform="translate(-649.224 -1090.875)" fill="url(#linear-gradient-6)"/>
            </g>
            <path id="Path_36" data-name="Path 36" d="M2163.8,2124.977,947.488,2208c-20.207,1.382-39.9-13.848-43.92-34.021l-189.39-951.151c-4.017-20.173,9.47-36.1,30.058-35.58l1239.043,31.147c16.183.408,32.135,15.169,35.682,32.965L2186.1,2090.786C2189.649,2108.583,2179.682,2123.887,2163.8,2124.977Z" transform="translate(-662.656 -1121.63)" fill="#d8dee8"/>
            <path id="Path_37" data-name="Path 37" d="M2172.575,2124.686,957.721,2207.6c-20.186,1.375-39.855-13.841-43.865-34L724.589,1223.063c-4.01-20.159,9.457-36.076,30.017-35.559l1237.559,31.107c16.163.408,32.1,15.155,35.641,32.945l167.046,838.959C2198.391,2108.3,2188.438,2123.6,2172.575,2124.686Z" transform="translate(-665.98 -1121.713)" fill="url(#linear-gradient-7)"/>
            <g id="Group_13" data-name="Group 13" transform="translate(167.996 233.184)">
              <path id="Path_38" data-name="Path 38" d="M1597.95,1633.171l-132.61.824a9.272,9.272,0,0,1-8.674-7.333l-21.936-110.17c-.81-4.071,1.763-7.353,5.753-7.332l132.923.742a9.238,9.238,0,0,1,8.483,7.312l21.63,108.645C1604.315,1629.876,1601.823,1633.151,1597.95,1633.171Zm-128.348-13.95,118.422-.565-18.763-94.225-118.633-.5Z" transform="translate(-1060.818 -1457.568)" fill="#ff9085"/>
              <path id="Path_39" data-name="Path 39" d="M1846.375,1632.59l-128.368.8c-3.847.021-7.618-3.207-8.415-7.21L1688.01,1517.8c-.8-4.01,1.688-7.237,5.542-7.217l128.668.722c3.758.021,7.448,3.241,8.231,7.2l21.282,106.9C1852.53,1629.342,1850.127,1632.562,1846.375,1632.59Zm-124.29-13.739,114.636-.552-18.457-92.714-114.841-.483Z" transform="translate(-1141.66 -1458.021)" fill="#d8dee8"/>
              <path id="Path_40" data-name="Path 40" d="M2086.929,1632.016l-124.324.769c-3.731.02-7.387-3.152-8.17-7.094l-21.235-106.65c-.783-3.942,1.607-7.121,5.344-7.1l124.617.694c3.643.02,7.224,3.193,8,7.08l20.949,105.22C2092.88,1628.823,2090.565,1632,2086.929,1632.016Zm-120.423-13.528,111.028-.531-18.171-91.25-111.225-.47Z" transform="translate(-1219.955 -1458.414)" fill="#ff9085"/>
              <path id="Path_41" data-name="Path 41" d="M2319.97,1631.464l-120.471.749c-3.608.02-7.169-3.1-7.938-6.985l-20.9-104.975c-.776-3.881,1.539-7.012,5.154-6.992l120.75.674c3.533.02,7.012,3.139,7.775,6.972l20.622,103.587C2325.73,1628.325,2323.5,1631.443,2319.97,1631.464Zm-116.733-13.33,107.583-.517-17.885-89.834-107.774-.449Z" transform="translate(-1295.378 -1459.053)" fill="#ff9085"/>
              <path id="Path_42" data-name="Path 42" d="M2545.859,1630.936l-116.794.722c-3.5.021-6.958-3.057-7.72-6.876l-20.574-103.348c-.762-3.819,1.47-6.9,4.977-6.883l117.067.653c3.425.02,6.809,3.091,7.557,6.863l20.309,102C2551.435,1627.838,2549.277,1630.915,2545.859,1630.936ZM2432.646,1617.8l104.295-.5-17.613-88.459-104.485-.436Z" transform="translate(-1368.901 -1458.981)" fill="#ff9085"/>
              <path id="Path_43" data-name="Path 43" d="M1120.008,1855.329l-141.358,2.846a9.579,9.579,0,0,1-9.2-7.469L946.76,1736.771a6.169,6.169,0,0,1,6.182-7.693l141.692-1.178a9.512,9.512,0,0,1,8.987,7.455l22.358,112.3C1126.809,1851.816,1124.134,1855.247,1120.008,1855.329Zm-136.722-12.534,126.237-2.362-19.4-97.4-126.469,1.226Z" transform="translate(-905.067 -1527.385)" fill="#d8dee8"/>
              <path id="Path_44" data-name="Path 44" d="M1384.64,1851.051l-136.688,2.75a9.334,9.334,0,0,1-8.919-7.346l-22.3-112.022c-.824-4.139,1.838-7.523,5.95-7.557l137.008-1.137a9.291,9.291,0,0,1,8.721,7.333l21.99,110.442C1391.21,1847.593,1388.637,1850.97,1384.64,1851.051Zm-132.249-12.377,122.064-2.287-19.07-95.784-122.282,1.185Z" transform="translate(-991.236 -1526.696)" fill="#d8dee8"/>
              <path id="Path_45" data-name="Path 45" d="M1640.621,1846.9l-132.242,2.662a9.107,9.107,0,0,1-8.653-7.23l-21.936-110.17c-.81-4.071,1.756-7.4,5.732-7.434l132.555-1.1c3.874-.034,7.659,3.2,8.463,7.217l21.63,108.645C1646.967,1843.5,1644.482,1846.814,1640.621,1846.9Zm-128-12.214,118.095-2.213-18.763-94.225-118.306,1.144Z" transform="translate(-1074.561 -1526.019)" fill="#d8dee8"/>
              <path id="Path_46" data-name="Path 46" d="M1888.351,1842.878l-128.014,2.58c-3.84.075-7.6-3.111-8.395-7.115l-21.582-108.38c-.8-4.01,1.675-7.278,5.521-7.312l128.314-1.062c3.751-.034,7.428,3.145,8.217,7.1l21.282,106.9C1894.485,1839.542,1892.1,1842.8,1888.351,1842.878Zm-123.95-12.051,114.316-2.145-18.457-92.714-114.521,1.11Z" transform="translate(-1155.321 -1525.092)" fill="url(#linear-gradient-8)"/>
              <path id="Path_47" data-name="Path 47" d="M2128.235,1838.991l-123.984,2.5c-3.717.075-7.366-3.057-8.156-7.006l-21.235-106.65c-.783-3.942,1.6-7.162,5.324-7.2l124.27-1.028c3.636-.027,7.2,3.1,7.979,6.985l20.949,105.221C2134.172,1835.7,2131.864,1838.917,2128.235,1838.991Zm-120.1-11.9,110.715-2.077-18.171-91.25-110.919,1.076Z" transform="translate(-1233.217 -1524.739)" fill="#d8dee8"/>
              <path id="Path_48" data-name="Path 48" d="M2360.643,1835.216l-120.137,2.417c-3.6.075-7.148-3.016-7.925-6.9l-20.9-104.975c-.776-3.881,1.532-7.053,5.14-7.08l120.423-1c3.52-.027,6.992,3.05,7.754,6.883l20.622,103.587C2366.382,1831.982,2364.156,1835.141,2360.643,1835.216Zm-116.42-11.751,107.283-2.008-17.885-89.834-107.481,1.042Z" transform="translate(-1308.805 -1524.123)" fill="#d8dee8"/>
              <path id="Path_49" data-name="Path 49" d="M2585.912,1831.565l-116.468,2.349c-3.492.068-6.937-2.968-7.7-6.788l-20.574-103.348c-.763-3.819,1.464-6.944,4.963-6.972l116.74-.967c3.417-.027,6.788,3,7.543,6.774l20.309,102C2591.467,1828.386,2589.316,1831.5,2585.912,1831.565ZM2473,1819.964l104.009-1.947-17.613-88.459-104.2,1.008Z" transform="translate(-1382.054 -1523.536)" fill="#d8dee8"/>
              <path id="Path_50" data-name="Path 50" d="M1164.112,2075.9l-140.97,4.813a9.4,9.4,0,0,1-9.177-7.366L991.28,1959.41a6.259,6.259,0,0,1,6.161-7.8l141.3-3.145a9.341,9.341,0,0,1,8.967,7.353l22.358,112.3A6.215,6.215,0,0,1,1164.112,2075.9Zm-136.348-10.675,125.89-4.126-19.4-97.4-126.115,2.982Z" transform="translate(-919.276 -1597.786)" fill="#d8dee8"/>
              <path id="Path_51" data-name="Path 51" d="M1428.018,2067.948l-136.307,4.657a9.159,9.159,0,0,1-8.9-7.244l-22.3-112.022c-.824-4.139,1.831-7.571,5.93-7.666l136.633-3.043a9.133,9.133,0,0,1,8.7,7.23l21.991,110.442C1434.568,2064.394,1432,2067.812,1428.018,2067.948Zm-131.9-10.566,121.73-3.99-19.07-95.784-121.948,2.886Z" transform="translate(-1005.21 -1595.922)" fill="#d8dee8"/>
              <path id="Path_52" data-name="Path 52" d="M1683.283,2060.268l-131.875,4.507a8.944,8.944,0,0,1-8.633-7.128l-21.936-110.17c-.81-4.071,1.75-7.448,5.712-7.536L1658.74,1937c3.86-.088,7.639,3.1,8.442,7.115l21.63,108.645C1689.615,2056.776,1687.137,2060.139,1683.283,2060.268ZM1555.63,2049.8l117.768-3.861-18.763-94.225-117.979,2.791Z" transform="translate(-1088.302 -1594.125)" fill="#ff9085"/>
              <path id="Path_53" data-name="Path 53" d="M1930.333,2052.837l-127.66,4.364c-3.826.129-7.578-3.009-8.381-7.019L1772.71,1941.8c-.8-4.01,1.668-7.326,5.508-7.407l127.96-2.846c3.738-.082,7.407,3.05,8.2,7.006l21.282,106.9C1936.447,2049.406,1934.064,2052.708,1930.333,2052.837Zm-123.623-10.362,114-3.738-18.457-92.714-114.207,2.7Z" transform="translate(-1168.694 -1592.385)" fill="#ff9085"/>
              <path id="Path_54" data-name="Path 54" d="M2169.557,2045.631l-123.637,4.228c-3.71.129-7.353-2.968-8.136-6.91L2016.55,1936.3c-.783-3.942,1.593-7.2,5.31-7.292l123.93-2.757c3.622-.082,7.189,3.009,7.958,6.9l20.949,105.221C2175.467,2042.254,2173.172,2045.508,2169.557,2045.631Zm-119.776-10.26,110.408-3.615-18.171-91.25-110.613,2.614Z" transform="translate(-1246.523 -1590.694)" fill="#d8dee8"/>
              <path id="Path_55" data-name="Path 55" d="M2401.309,2038.649l-119.8,4.092c-3.595.123-7.128-2.921-7.9-6.8l-20.9-104.975c-.769-3.881,1.518-7.094,5.12-7.169l120.09-2.676c3.513-.075,6.978,2.961,7.741,6.794l20.622,103.587C2407.035,2035.327,2404.815,2038.533,2401.309,2038.649Zm-116.1-10.165,106.991-3.506-17.885-89.834-107.181,2.54Z" transform="translate(-1321.898 -1589.057)" fill="#d8dee8"/>
              <path id="Path_56" data-name="Path 56" d="M2625.951,2031.881l-116.148,3.969c-3.479.116-6.924-2.88-7.679-6.7L2481.549,1925.8c-.763-3.819,1.45-6.978,4.943-7.06l116.42-2.594c3.4-.075,6.774,2.921,7.523,6.692l20.309,102C2631.493,2028.62,2629.348,2031.766,2625.951,2031.881Zm-112.6-10.062,103.723-3.4-17.613-88.459-103.907,2.458Z" transform="translate(-1394.942 -1587.47)" fill="#d8dee8"/>
              <path id="Path_57" data-name="Path 57" d="M1208.227,2296.459l-140.575,6.788a9.222,9.222,0,0,1-9.157-7.258l-22.685-113.935a6.361,6.361,0,0,1,6.141-7.9l140.909-5.113a9.176,9.176,0,0,1,8.946,7.244l22.358,112.3A6.314,6.314,0,0,1,1208.227,2296.459Zm-135.98-8.816,125.536-5.882-19.4-97.4-125.768,4.745Z" transform="translate(-933.489 -1668.186)" fill="#d8dee8"/>
              <path id="Path_58" data-name="Path 58" d="M1471.393,2284.859l-135.932,6.563a9,9,0,0,1-8.878-7.142l-22.3-112.022c-.824-4.139,1.824-7.618,5.909-7.768l136.252-4.943a8.965,8.965,0,0,1,8.68,7.128l21.991,110.442C1477.922,2281.2,1475.362,2284.669,1471.393,2284.859Zm-131.534-8.769,121.39-5.685-19.07-95.785-121.608,4.589Z" transform="translate(-1019.18 -1665.158)" fill="#d8dee8"/>
              <path id="Path_59" data-name="Path 59" d="M1725.955,2273.647l-131.507,6.345a8.785,8.785,0,0,1-8.612-7.026L1563.9,2162.8c-.81-4.071,1.736-7.489,5.692-7.632l131.82-4.786c3.854-.143,7.625,3,8.422,7.019l21.63,108.645C1732.259,2270.052,1729.795,2273.463,1725.955,2273.647Zm-127.306-8.728,117.441-5.5-18.763-94.225-117.652,4.439Z" transform="translate(-1102.046 -1662.231)" fill="#f3a7a3"/>
              <path id="Path_60" data-name="Path 60" d="M1972.312,2262.792l-127.3,6.148c-3.819.184-7.564-2.914-8.36-6.924l-21.582-108.379c-.8-4.01,1.661-7.366,5.487-7.51l127.606-4.63c3.731-.136,7.387,2.962,8.177,6.91l21.282,106.9C1978.412,2259.259,1976.036,2262.609,1972.312,2262.792Zm-123.283-8.68,113.683-5.324-18.457-92.714-113.887,4.3Z" transform="translate(-1182.215 -1659.396)" fill="#ff9085"/>
              <path id="Path_61" data-name="Path 61" d="M2210.866,2252.27l-123.3,5.95c-3.7.177-7.333-2.873-8.115-6.815l-21.235-106.65c-.783-3.942,1.586-7.251,5.29-7.38l123.582-4.487c3.615-.129,7.169,2.914,7.945,6.808l20.949,105.221C2216.762,2248.8,2214.475,2252.1,2210.866,2252.27Zm-119.443-8.626,110.1-5.161-18.171-91.25-110.306,4.16Z" transform="translate(-1259.824 -1656.648)" fill="#d8dee8"/>
              <path id="Path_62" data-name="Path 62" d="M2441.985,2242.088l-119.47,5.767c-3.581.17-7.114-2.832-7.884-6.713l-20.9-104.975c-.769-3.881,1.511-7.135,5.106-7.264l119.756-4.344c3.5-.129,6.958,2.873,7.721,6.706l20.622,103.587C2447.69,2238.677,2445.478,2241.917,2441.985,2242.088ZM2326.2,2233.5l106.691-5L2415,2138.671l-106.882,4.031Z" transform="translate(-1334.994 -1653.99)" fill="#ff9085"/>
              <path id="Path_63" data-name="Path 63" d="M2666,2232.207l-115.821,5.59c-3.472.17-6.9-2.791-7.666-6.617l-20.574-103.348c-.762-3.82,1.444-7.019,4.922-7.149l116.1-4.214c3.4-.122,6.753,2.832,7.509,6.6l20.309,102C2671.522,2228.851,2669.385,2232.044,2666,2232.207Zm-112.294-8.531,103.43-4.847-17.613-88.459-103.621,3.908Z" transform="translate(-1407.834 -1651.407)" fill="#d8dee8"/>
              <path id="Path_64" data-name="Path 64" d="M1252.338,2517.014l-140.187,8.755a9.061,9.061,0,0,1-9.137-7.148l-22.685-113.935a6.464,6.464,0,0,1,6.121-8.013l140.521-7.087a9.01,9.01,0,0,1,8.926,7.142l22.358,112.3A6.425,6.425,0,0,1,1252.338,2517.014Zm-135.612-6.951,125.189-7.639-19.4-97.4-125.414,6.5Z" transform="translate(-947.699 -1738.58)" fill="#d8dee8"/>
              <path id="Path_65" data-name="Path 65" d="M1514.771,2501.767l-135.551,8.469a8.846,8.846,0,0,1-8.858-7.04l-22.3-112.022a6.3,6.3,0,0,1,5.889-7.87l135.871-6.849a8.8,8.8,0,0,1,8.66,7.033l21.99,110.442C1521.28,2498.009,1518.734,2501.522,1514.771,2501.767Zm-131.18-6.965,121.05-7.387-19.07-95.785-121.268,6.284Z" transform="translate(-1033.153 -1734.389)" fill="#d8dee8"/>
              <path id="Path_66" data-name="Path 66" d="M1768.613,2487.025l-131.146,8.19a8.628,8.628,0,0,1-8.592-6.931l-21.936-110.17c-.81-4.071,1.729-7.537,5.671-7.734l131.452-6.625c3.84-.19,7.6,2.907,8.4,6.924l21.63,108.645C1774.9,2483.335,1772.446,2486.78,1768.613,2487.025Zm-126.959-6.985,117.114-7.148-18.763-94.225-117.326,6.08Z" transform="translate(-1115.783 -1730.336)" fill="#d8dee8"/>
              <path id="Path_67" data-name="Path 67" d="M2014.287,2472.744l-126.945,7.931c-3.806.239-7.543-2.818-8.34-6.822l-21.582-108.379c-.8-4.01,1.648-7.414,5.467-7.6l127.252-6.413c3.717-.19,7.373,2.866,8.156,6.815l21.282,106.9C2020.367,2469.122,2018,2472.512,2014.287,2472.744Zm-122.942-6.992,113.37-6.917-18.464-92.714-113.574,5.889Z" transform="translate(-1195.731 -1726.41)" fill="#d8dee8"/>
              <path id="Path_68" data-name="Path 68" d="M1035.779,1465.283l-144.048-1.049-6.141-30.855,144.122,1.45Z" transform="translate(-885.59 -1433.38)" fill="url(#linear-gradient-9)"/>
              <path id="Path_69" data-name="Path 69" d="M1305.1,1467.492l-139.227-1.014-6.039-30.337,139.3,1.409Z" transform="translate(-973.122 -1434.261)" fill="url(#linear-gradient-10)"/>
              <path id="Path_70" data-name="Path 70" d="M1565.492,1469.627l-134.639-.98-5.943-29.827,134.72,1.355Z" transform="translate(-1057.731 -1435.116)" fill="url(#linear-gradient-11)"/>
              <path id="Path_71" data-name="Path 71" d="M1817.406,1471.689l-130.275-.953-5.841-29.336,130.349,1.321Z" transform="translate(-1139.562 -1435.94)" fill="url(#linear-gradient-12)"/>
              <path id="Path_72" data-name="Path 72" d="M2061.245,1473.689l-126.129-.919-5.746-28.86,126.2,1.273Z" transform="translate(-1218.745 -1436.741)" fill="url(#linear-gradient-13)"/>
              <path id="Path_73" data-name="Path 73" d="M2297.391,1475.625l-122.173-.892-5.657-28.4,122.241,1.232Z" transform="translate(-1295.409 -1437.513)" fill="url(#linear-gradient-14)"/>
              <path id="Path_74" data-name="Path 74" d="M2526.2,1477.5l-118.4-.865-5.562-27.954,118.462,1.192Z" transform="translate(-1369.676 -1438.263)" fill="url(#linear-gradient-15)"/>
            </g>
            <path id="Path_75" data-name="Path 75" d="M2019.783,1360.445l-1151.9-16.006L856.27,1286.12l1153.116,22.106Z" transform="translate(-708.235 -1153.193)" fill="#d8dee8"/>
            <g id="Group_65" data-name="Group 65" transform="translate(57.779 65.759)" opacity="0.3">
              <path id="Path_76" data-name="Path 76" d="M1670.113,1727.99c-257.949-140.153-502.4-31.2-678.4-210.979-90.263-92.2-119.2-216.636-124.42-326.684l-113.452-2.853c-20.173-.5-33.381,15.107-29.445,34.878l189.54,951.941c3.935,19.771,23.23,34.7,43.035,33.346l1065.924-72.752C1905.806,1896.956,1776.437,1785.758,1670.113,1727.99Z" transform="translate(-723.701 -1187.463)" fill="#d8dee8"/>
            </g>
          </g>
        </g>
        <g id="Group_31" data-name="Group 31" transform="translate(737.4 323.132)">
          <path id="Path_77" data-name="Path 77" d="M1776.135,1776.47a3.046,3.046,0,0,1-1.793-.583l-14.766-10.7a3.057,3.057,0,1,1,3.589-4.951l12.556,9.1,36.072-39.454a3.058,3.058,0,0,1,4.514,4.126l-37.913,41.466A3.046,3.046,0,0,1,1776.135,1776.47Z" transform="translate(-1758.312 -1728.886)" stroke="#862e49" stroke-width="1" fill="url(#linear-gradient-16)"/>
        </g>
        <g id="Group_32" data-name="Group 32" transform="translate(1077.597 323.474)">
          <path id="Path_77-2" data-name="Path 77" d="M1776.061,1776.272a3.034,3.034,0,0,1-1.785-.58l-14.7-10.657a3.045,3.045,0,1,1,3.574-4.93l12.5,9.062,35.922-39.289a3.045,3.045,0,1,1,4.5,4.109l-37.755,41.293A3.034,3.034,0,0,1,1776.061,1776.272Z" transform="translate(-1758.312 -1728.887)" fill="url(#linear-gradient-16)"/>
        </g>
        <g id="Group_33" data-name="Group 33" transform="translate(1237.589 323.474)">
          <path id="Path_77-3" data-name="Path 77" d="M1776.061,1776.272a3.034,3.034,0,0,1-1.785-.58l-14.7-10.657a3.045,3.045,0,1,1,3.574-4.93l12.5,9.062,35.922-39.289a3.045,3.045,0,1,1,4.5,4.109l-37.755,41.293A3.034,3.034,0,0,1,1776.061,1776.272Z" transform="translate(-1758.312 -1728.887)" fill="url(#linear-gradient-16)"/>
        </g>
        <g id="Group_34" data-name="Group 34" transform="translate(1391.454 323.474)">
          <path id="Path_77-4" data-name="Path 77" d="M1776.061,1776.272a3.033,3.033,0,0,1-1.785-.58l-14.7-10.657a3.045,3.045,0,1,1,3.574-4.93l12.5,9.062,35.922-39.289a3.045,3.045,0,0,1,4.5,4.109l-37.755,41.293A3.034,3.034,0,0,1,1776.061,1776.272Z" transform="translate(-1758.312 -1728.887)" fill="url(#linear-gradient-16)"/>
        </g>
        <g id="Group_35" data-name="Group 35" transform="translate(801.865 467.808)">
          <path id="Path_77-5" data-name="Path 77" d="M1776.061,1776.272a3.034,3.034,0,0,1-1.785-.58l-14.7-10.657a3.045,3.045,0,1,1,3.574-4.93l12.5,9.062,35.922-39.289a3.045,3.045,0,1,1,4.5,4.109l-37.755,41.293A3.034,3.034,0,0,1,1776.061,1776.272Z" transform="translate(-1618.744 -1728.887)" fill="url(#linear-gradient-16)"/>
          <path id="Path_130" data-name="Path 130" d="M1776.061,1776.272a3.034,3.034,0,0,1-1.785-.58l-14.7-10.657a3.045,3.045,0,1,1,3.574-4.93l12.5,9.062,35.922-39.289a3.045,3.045,0,1,1,4.5,4.109l-37.755,41.293A3.034,3.034,0,0,1,1776.061,1776.272Z" transform="translate(-1589.469 -1585.915)" fill="url(#linear-gradient-16)"/>
          <path id="Path_242" data-name="Path 242" d="M1776.061,1776.272a3.034,3.034,0,0,1-1.785-.58l-14.7-10.657a3.045,3.045,0,1,1,3.574-4.93l12.5,9.062,35.922-39.289a3.045,3.045,0,1,1,4.5,4.109l-37.755,41.293A3.034,3.034,0,0,1,1776.061,1776.272Z" transform="translate(-1758.312 -1585.915)" fill="url(#linear-gradient-16)"/>
          <path id="Path_243" data-name="Path 243" d="M1776.061,1776.272a3.034,3.034,0,0,1-1.785-.58l-14.7-10.657a3.045,3.045,0,1,1,3.574-4.93l12.5,9.062,35.922-39.289a3.045,3.045,0,1,1,4.5,4.109l-37.755,41.293A3.034,3.034,0,0,1,1776.061,1776.272Z" transform="translate(-1729.037 -1436.815)" fill="url(#linear-gradient-16)"/>
          <path id="Path_244" data-name="Path 244" d="M1776.061,1776.272a3.034,3.034,0,0,1-1.785-.58l-14.7-10.657a3.045,3.045,0,1,1,3.574-4.93l12.5,9.062,35.922-39.289a3.045,3.045,0,1,1,4.5,4.109l-37.755,41.293A3.034,3.034,0,0,1,1776.061,1776.272Z" transform="translate(-1560.194 -1442.943)" fill="url(#linear-gradient-16)"/>
          <path id="Path_245" data-name="Path 245" d="M1776.061,1776.272a3.034,3.034,0,0,1-1.785-.58l-14.7-10.657a3.045,3.045,0,1,1,3.574-4.93l12.5,9.062,35.922-39.289a3.045,3.045,0,1,1,4.5,4.109l-37.755,41.293A3.034,3.034,0,0,1,1776.061,1776.272Z" transform="translate(-1237.486 -1460.508)" fill="url(#linear-gradient-16)"/>
        </g>
      </g>
      <g id="Group_21" data-name="Group 21" transform="translate(196.094 800.106)">
        <g id="Group_19" data-name="Group 19" transform="translate(416.944 179.742)">
          <path id="Path_78" data-name="Path 78" d="M1299.36,1924.679l82.359-142.067a4.616,4.616,0,0,1,5.038-2.178l115.229,26.926a4.607,4.607,0,0,1,2.859,6.931l-95.567,152.817A4.616,4.616,0,0,1,1403.8,1969l-101.272-36.574Z" transform="translate(-1299.36 -1780.315)" fill="url(#linear-gradient-26)"/>
          <path id="Path_79" data-name="Path 79" d="M1329.12,1913.878l66.686-115.031a3.728,3.728,0,0,1,4.078-1.763l93.3,21.807a3.731,3.731,0,0,1,2.315,5.61l-77.382,123.732a3.738,3.738,0,0,1-4.432,1.532l-82-29.616Z" transform="translate(-1308.859 -1785.636)" fill="url(#linear-gradient-27)"/>
          <path id="Path_80" data-name="Path 80" d="M1455.759,1796.541l5.3-9.225a3.38,3.38,0,0,1,3.663-1.614l47.991,10.791a3.373,3.373,0,0,1,2.165,5l-5.889,10.035a3.369,3.369,0,0,1-3.71,1.566l-47.4-11.6A3.369,3.369,0,0,1,1455.759,1796.541Z" transform="translate(-1349.136 -1782.009)" fill="url(#linear-gradient-28)"/>
          <path id="Path_81" data-name="Path 81" d="M1507.883,1848.6c-.075-.007-.143-.027-.218-.041l-84.49-19.941a1.943,1.943,0,0,1-1.45-2.335,1.971,1.971,0,0,1,2.342-1.443l84.49,19.941a1.942,1.942,0,0,1-.674,3.819Z" transform="translate(-1338.4 -1794.509)" fill="#fff"/>
          <path id="Path_82" data-name="Path 82" d="M1500.346,1860.258c-.082-.007-.163-.027-.238-.041l-83.972-20.724a1.946,1.946,0,0,1,.933-3.779l83.972,20.724a1.945,1.945,0,0,1-.695,3.819Z" transform="translate(-1336.16 -1797.979)" fill="#fff"/>
          <path id="Path_83" data-name="Path 83" d="M1453.249,1877.458c-.1-.014-.2-.034-.293-.054l-45.656-12.6a1.935,1.935,0,0,1-1.355-2.4,1.956,1.956,0,0,1,2.39-1.355l45.656,12.6a1.944,1.944,0,0,1-.742,3.806Z" transform="translate(-1333.357 -1806.064)" fill="#fff"/>
          <path id="Path_84" data-name="Path 84" d="M1438.859,1901.678a2.245,2.245,0,0,1-.293-.054l-45.656-12.6a1.935,1.935,0,0,1-1.355-2.4,1.956,1.956,0,0,1,2.39-1.355l45.656,12.6a1.945,1.945,0,0,1-.742,3.806Z" transform="translate(-1328.763 -1813.794)" fill="#fff"/>
          <path id="Path_85" data-name="Path 85" d="M1423.739,1925.828c-.1-.014-.2-.034-.293-.054l-45.656-12.6a1.935,1.935,0,0,1-1.355-2.4,1.956,1.956,0,0,1,2.39-1.355l45.656,12.6a1.945,1.945,0,0,1-.742,3.806Z" transform="translate(-1323.938 -1821.502)" fill="#fff"/>
        </g>
        <path id="Path_86" data-name="Path 86" d="M1502.675,1941.9s8.844-16.564,14.154-16.244,9.13-3.683,9.13-3.683,9.654-22.249,11.839-18.934,6.209,45.935-20.486,56.065S1502.675,1941.9,1502.675,1941.9Z" transform="translate(-946.443 -1639.638)" fill="url(#linear-gradient-29)"/>
        <path id="Path_87" data-name="Path 87" d="M796.757,1756.78c-5.528,2.09-89.841,35.62-107.168,123.616-1.4,7.108-14.944,82.713,36.329,136.123,57.5,59.892,168.2,58.408,212.143,8.34a89.814,89.814,0,0,0,18.682-35.491l-11.581-30.759c-14.127-17.054-33.36-21.1-43.634-23.631-25.326-6.243-44.444,5.038-58.952-7.176-8.027-6.754-9.62-16.483-11.043-25.17-4.847-29.588,11.853-47.807,13.065-66.053.912-13.644,5.685-43.532-12.119-63.023C821.2,1761.219,805.581,1757.856,796.757,1756.78Z" transform="translate(-686.944 -1593.061)" fill="url(#linear-gradient-30)"/>
        <path id="Path_88" data-name="Path 88" d="M784.6,3194.1c-.98-5.419-18.477-10.321-27.137-3.063-4.3,3.6-7.264,10.906-4.773,14.2.906,1.2-2.8,3.309.749,3.35C765.22,3208.725,785.583,3199.479,784.6,3194.1Z" transform="translate(-707.639 -2049.683)" fill="url(#linear-gradient-31)"/>
        <path id="Path_89" data-name="Path 89" d="M764.614,3179.259l-17.994-2.546c8.333-10.035,6.794-41.993,6.794-41.993l19.138,4.269s-2.179,8.776-5.889,21.711C765.39,3165.132,764.825,3172.07,764.614,3179.259Z" transform="translate(-705.992 -2032.874)" fill="url(#linear-gradient-32)"/>
        <path id="Path_90" data-name="Path 90" d="M763.384,3195.747s-21.664-4.99-24.006-.694-4.16,15.8,9.579,15.427S764.6,3199.389,763.384,3195.747Z" transform="translate(-703.162 -2051.574)" fill="url(#linear-gradient-33)"/>
        <path id="Path_91" data-name="Path 91" d="M1147.849,3224.855c-1.729-5.229-19.744-7.632-27.3.762-3.751,4.167-5.664,11.812-2.737,14.733,1.062,1.062-2.315,3.669,1.212,3.214C1130.706,3242.052,1149.572,3230.049,1147.849,3224.855Z" transform="translate(-824.014 -2060.128)" fill="url(#linear-gradient-34)"/>
        <path id="Path_92" data-name="Path 92" d="M1127.821,3213.781H1109.65c6.849-11.1.844-42.531.844-42.531l19.546,1.552s-.933,8.994-2.791,22.324C1126.609,3199.688,1127.018,3206.632,1127.821,3213.781Z" transform="translate(-821.864 -2044.534)" fill="url(#linear-gradient-35)"/>
        <path id="Path_93" data-name="Path 93" d="M1060.607,2217.5a841.6,841.6,0,0,1,28.179,128.947c22.072,160.551-24.843,165.671-16.081,343.582,2.8,56.787-49.2,187.743-53.785,190.636a55.112,55.112,0,0,1-7.189.279,71.842,71.842,0,0,1-18.314-3.05c-8.238-1.416-37.935-81.855-31.052-129.676,4.868-33.85,3.459-70.172.633-142.822-.456-11.771-30.576-229.028-30.576-229.028-9.164,80.418-19.7,148.745-28.833,201.72-29.35,170.2-124.767,273.213-129.744,274.867-.98.4-9.94,3.649-17.259-1.178a11.841,11.841,0,0,1-4.364-4.916c-2.553-2,.756-169.926,29.854-296.306,42.245-183.44,23.849-226.359,37.234-308.3C830.9,2171.37,1060.607,2217.5,1060.607,2217.5Z" transform="translate(-707.558 -1735.405)" fill="url(#linear-gradient-36)"/>
        <path id="Path_94" data-name="Path 94" d="M905.02,1734.772c28.05-.824,92.516-10.723,128.021,21.221.62.552-6.658,4.439-3.077,8.64a232.2,232.2,0,0,1,25.068,35.974c7.489,13.351,14.25,28.921,21.071,52.116a447.344,447.344,0,0,1,16.632,90.93c6.488,85.361.054,124.746-5.787,151.523-25.361,13.024-90.7,36.336-168.557,24.755a263.167,263.167,0,0,1-84.034-27.682c20.2-61.165,4.35-93.9-3.125-124.065-10.661-43.021-10.832-39.767-19.614-73.937-14.488-56.385-16.864-114-6.91-125.795C831.552,1736.658,879.9,1735.507,905.02,1734.772Z" transform="translate(-722.604 -1585.371)" fill="url(#linear-gradient-37)"/>
        <path id="Path_95" data-name="Path 95" d="M1126.63,3229.985s-22.147-1.906-23.863,2.676-1.906,16.231,11.649,13.936S1128.353,3233.424,1126.63,3229.985Z" transform="translate(-819.407 -2063.155)" fill="url(#linear-gradient-38)"/>
        <g id="Group_20" data-name="Group 20" transform="translate(139.839)">
          <path id="Path_96" data-name="Path 96" d="M1014.582,1659.266c8.687-14.685,4.092-32.924,3.213-36.546-3.656-15.182-5.011-17.483-7.829-20.7l-3.983-4.214s-.245-.184-.511-.368c-2.771-1.906-13.113-5-15.346-5.113-7.135-.361-21.65,25.224-29.963,64.644q-1.011,2.114-2.008,4.269c-4.126,8.946-7.659,17.735-10.7,26.314-48.209,4.078-54.9,9.729-55.112,13-.449,6.876,27.015,14.821,47.671,17.844,45.05,6.6,91.366-5.283,91.155-13.684-.1-3.656-9.048-8.422-47.242-13.426q1.338-9.477,2.682-18.961C989.718,1671.644,1008.182,1670.091,1014.582,1659.266Z" transform="translate(-892.342 -1540.57)" fill="url(#linear-gradient-39)"/>
          <path id="Path_97" data-name="Path 97" d="M1042.519,1566.233c-3.248,12.03-12.357,23.379-15.795,24.68a20.785,20.785,0,0,0-5.63,3.6,6.464,6.464,0,0,0-1.069,1.239c-4.664,6.883,5.024,19.036,1.791,21.813-2.349,2.015-9.668-3.465-11.213-1.6-1.45,1.756,4.255,7.727,2.574,9.845-1.273,1.6-5.024-1.171-8.408.9-1.688,1.028-1.593,2.226-4.112,6.08a39.578,39.578,0,0,1-4.473,5.726c-6.046,5.964-18.525,5.4-20.036,1.968-.422-.96.3-1.477.361-4.3a21.99,21.99,0,0,0-.892-5.9c-1.355-4.7-6.475-9.171-11.274-15.033-8.885-10.852-10.076-18.4-10.369-20.922-.1-.9-.136-1.566-.163-2.042-.5-9.64,2.968-22.685,9.1-29.636,10.267-11.649,23.645-1.253,39.542-11.274,18.334-11.56,15.448-34.81,23.795-35.069C1035.438,1516.03,1048.53,1543.984,1042.519,1566.233Z" transform="translate(-911.946 -1516.307)" fill="#26264f"/>
          <path id="Path_98" data-name="Path 98" d="M1043.867,1657.964c-1.872-4.841-8.075-2.417-9.5,2.825s2.2,12.051,7.407,12.33S1046.379,1664.479,1043.867,1657.964Z" transform="translate(-937.572 -1560.686)" fill="url(#linear-gradient-40)"/>
        </g>
        <path id="Path_99" data-name="Path 99" d="M849.773,2131.444a.231.231,0,0,1-.068-.007.6.6,0,0,1-.531-.667c3.322-29.888-2.866-51.579-8.326-70.717-1.341-4.711-2.614-9.157-3.717-13.616-6.052-24.421-8.7-33.85-11.513-43.831-1.825-6.5-3.71-13.215-6.638-24.442a.605.605,0,1,1,1.171-.306c2.921,11.22,4.807,17.933,6.631,24.421,2.812,9.995,5.46,19.431,11.519,43.872,1.1,4.439,2.369,8.878,3.7,13.582,5.487,19.247,11.71,41.067,8.367,71.186A.6.6,0,0,1,849.773,2131.444Z" transform="translate(-729.081 -1663.481)" fill="#9b305e"/>
        <path id="Path_100" data-name="Path 100" d="M1045.453,1645.36l4.473,10.737s3.1,10.355,10.376,8.054a8.569,8.569,0,0,0,6.352-7.9,41.561,41.561,0,0,1,2.233,13.984c0,5.943,0,12.3-4.65,17.177-.266.279-5.338,5.433-12.166,5.188,0,0-2.682-.1-12.881-4.827,0,0,13.957-5.365,14.672-7.332,1.947-5.351-4.868-10.342-7.516-23.08A46.906,46.906,0,0,1,1045.453,1645.36Z" transform="translate(-799.374 -1557.498)" fill="#26264f"/>
        <path id="Path_101" data-name="Path 101" d="M1358.812,1893.7c10.144,7.1,15.584,16.734,18.4,22.889-7.455,17.5-24.367,50-59.374,73.951-57.393,39.269-141.556,40.59-200.174-4.194-70.036-53.505-81.732-156.1-52.321-200.045,3.384-5.059,14.522-21.691,31.8-23.6,10.914-1.2,25.769,3.3,49.244,30.773,48.91,57.264,31.631,93.02,60.525,109.768C1250.241,1928.379,1314.633,1862.782,1358.812,1893.7Z" transform="translate(-802.912 -1594.898)" fill="url(#linear-gradient-41)"/>
        <path id="Path_102" data-name="Path 102" d="M1166.85,2078.837a.862.862,0,0,1-.129-.013c-.688-.15-69.3-15.911-100.148-101.013a.606.606,0,0,1,.361-.776.614.614,0,0,1,.776.361c15.992,44.124,42.129,69.028,61.233,82.154,20.711,14.222,37.86,18.055,38.031,18.1a.608.608,0,0,1,.463.722A.6.6,0,0,1,1166.85,2078.837Z" transform="translate(-808.102 -1663.351)" fill="#9b305e"/>
      </g>
      <g id="Group_24" data-name="Group 24" transform="translate(999.884 827.393)">
        <path id="Path_103" data-name="Path 103" d="M2710.982,3159.63s1.688,13.433.558,17.926-40.182,7.748-53.437,6.188,7.9-15.1,16.34-17.64S2710.982,3159.63,2710.982,3159.63Z" transform="translate(-2091.3 -2092.621)" fill="url(#linear-gradient-42)"/>
        <path id="Path_104" data-name="Path 104" d="M2708.9,3126.155l4.119,26.947s10.5,4.718,15.543.054l.558-28.206Z" transform="translate(-2108.872 -2081.552)" fill="url(#linear-gradient-43)"/>
        <path id="Path_105" data-name="Path 105" d="M3029.2,3124.114s-8.286,6.148-6.08,13.508,21.541,36.866,35.321,45.24,9.457-9.075,5.454-19.934-14.256-34.8-18.253-38.813S3029.2,3124.114,3029.2,3124.114Z" transform="translate(-2209.047 -2080.716)" fill="url(#linear-gradient-44)"/>
        <path id="Path_106" data-name="Path 106" d="M3010.33,3081.47c4,11.165,7.857,20.343,10.873,27.11,6.665,14.978,10.307,20.6,14.433,25.469,3.6,4.242,12.118,13.3,14.406,11.792,2.328-1.525-3.908-12.541-15.917-44.784-1.743-4.677-7.258-19.587-7.258-19.587Z" transform="translate(-2205.083 -2067.674)" fill="url(#linear-gradient-45)"/>
        <path id="Path_107" data-name="Path 107" d="M2587.112,2395.921a697.531,697.531,0,0,0-1.5,124.474c5.344,68.865,19.111,112.444,36.383,185.877,10.553,44.873,24.775,110.926,37.643,193.523a36.344,36.344,0,0,0,23.08,4.528,35.042,35.042,0,0,0,13.868-5.27c33.769-103.178,23.794-167.114,7.5-206.955-6.944-16.979-15.366-30.378-19.866-56.48-5.957-34.531,1.409-53.839,11.908-133.829,7.482-57.012,6.189-65.828,1.212-74.38C2677.429,2393.225,2616.53,2393.892,2587.112,2395.921Z" transform="translate(-2068.857 -1848.608)" fill="#6b2e65"/>
        <path id="Path_108" data-name="Path 108" d="M2759.5,2413.91c20.683,106.821,40.985,162.927,56.351,194.66a533.2,533.2,0,0,1,28.383,69.273c10.58,32.04,14.985,55.609,17.245,65.985,7.135,32.748,24.754,80.555,72.18,143.265.593.347,8.68,4.922,16.408.844a15.862,15.862,0,0,0,6.638-6.89c-6.2-59.953-13.317-110.333-19.492-149.215-1.3-8.156-7.006-43.838-15.958-90.971-3.506-18.451-8.639-45.479-14.787-73.236-7.652-34.572-19.4-81.61-37.493-137.968Z" transform="translate(-2125.023 -1854.601)" fill="#6b316a"/>
        <path id="Path_109" data-name="Path 109" d="M2276.65,1943.366l14.011-16.422c2.226,1.7,34.5,25.5,73.086,11.581,26.566-9.586,39.236-34.252,47.358-50,24.394-47.3,1.852-76.4,30.487-110.211,7.952-9.388,24.4-21.7,36.465-20.315,28.744,3.309,56.283,84.544,38.528,153.906-3.581,14-23.318,91.087-89.936,108.379C2372.87,2034.248,2309.554,2003.768,2276.65,1943.366Z" transform="translate(-1970.906 -1645.212)" fill="url(#linear-gradient-46)"/>
        <path id="Path_110" data-name="Path 110" d="M2708.98,1729.165c-11.73-10.845-34.177-23.345-45.431-52.4-3.391-8.748-15.393-39.739,2.315-63.445,10.512-14.073,30.031-23.631,47.242-20.248,14.706,2.893,17,13.133,41.986,33.741,9.722,8.02,25.36,20.915,42.755,28.084,29.806,12.282,47.719.728,77.64,2.042,36.764,1.62,79.472,22.14,100.047,51.974,36.519,52.954-16.381,106.677,23.617,168.714,13.106,20.323,19.567,15.768,50.612,55.112,31.086,39.392,46.629,59.088,43.865,83.23-3.84,33.5-39.923,65.5-73.9,67.673-33.19,2.124-54.3-23.985-71.193-12.561-12.03,8.129-5.154,23.938-17.926,42.939-16.469,24.5-48.835,29.384-54.057,30.167-48.515,7.319-113.935-49.571-141.719-116.972C2684.743,1905.681,2772.752,1788.117,2708.98,1729.165Z" transform="translate(-2092.122 -1592.386)" fill="url(#linear-gradient-47)"/>
        <path id="Path_111" data-name="Path 111" d="M2722.148,2693.076c-6.944-16.98-15.366-30.378-19.866-56.481-5.957-34.531,1.409-53.839,11.907-133.829,7.482-57.012,6.189-65.828,1.212-74.38-10.818-18.58-33.748-26.824-57.148-30.187.313,1.2.626,2.4.878,3.561,12.275,56.066-34.579,90.277-13.446,151.911,10.423,30.385,27.049,37.35,30.923,72.6,3.629,33.02-9.531,39.9-6.72,69.906,4.2,44.859,36.07,55.718,44.362,90.072,5.385,22.324.851,54.962-38.507,102.211.653,4.071,1.307,8.156,1.954,12.309a36.345,36.345,0,0,0,23.08,4.527,35.039,35.039,0,0,0,13.868-5.27C2748.414,2796.853,2738.447,2732.911,2722.148,2693.076Z" transform="translate(-2086.922 -1849.586)" opacity="0.3" fill="url(#linear-gradient-48)"/>
        <path id="Path_112" data-name="Path 112" d="M2482.915,1865.869c-44.56,46.466-28.479,121.506-58.714,129.614-9.232,2.478-9.716-4.8-33.142-8.98-34.259-6.114-48.168,6.788-72.351,1.886-10.015-2.029-23.434-7.469-38.01-22.678q-2.032,2.379-4.057,4.759c32.911,60.4,96.22,90.883,150,76.919,66.612-17.293,86.348-94.382,89.936-108.379,8.333-32.543,6.686-67.708-.375-96.2A105.331,105.331,0,0,0,2482.915,1865.869Z" transform="translate(-1970.903 -1672.317)" opacity="0.3" fill="url(#linear-gradient-49)"/>
        <path id="Path_113" data-name="Path 113" d="M2522.47,1764.636c3.1-4.807,12.942-18.13,54.711-27.955,14.978-3.52,39.059-8.844,69.8-7.714a239.21,239.21,0,0,1,39.651,4.916c38.139,8.265,114.167,37.3,116.815,76.858,1.893,28.247-35.77,30.065-57.08,80.071-15.523,36.431-15.42,81.943,1.511,117.353,13.589,28.411,37.636,49.741,55.9,65.944,27.389,24.3,41.578,28.036,50.762,49.8,10,23.706-.075,35.266,12.343,51.5,13.337,17.429,28.962,9.327,51.572,26.954,23.155,18.055,14.917,32.911,35.988,52.865,30.623,28.989,71.22,19.573,73.106,32.618,1.627,11.22-27.226,26.443-51.735,32.618-48.542,12.228-90.883-8.292-103.478-14.624-34.858-17.511-28.84-28.846-55.418-42.2-44.505-22.351-74.917,2.519-176.278,5.086-54.894,1.389-82.645,1.7-97.854-16.871-13.889-16.966-6.583-35.573,1.75-115.76v-.007c2.676-26.783,8.286-82.855,8.32-114.806.02-18.886-6.529-49.741-19.628-111.45-.776-3.635-7.864-36.975-13.589-81.515C2514.477,1788.206,2515.226,1775.89,2522.47,1764.636Z" transform="translate(-2047.4 -1635.931)" fill="url(#linear-gradient-50)"/>
        <g id="Group_22" data-name="Group 22" transform="translate(613.962 170.72)" opacity="0.3">
          <path id="Path_114" data-name="Path 114" d="M3022.441,2291.719c-21.072-19.955-12.834-34.81-35.988-52.865-22.61-17.626-38.235-9.525-51.572-26.954-12.418-16.231-2.342-27.791-12.343-51.5-9.184-21.773-23.366-25.5-50.762-49.8-18.26-16.2-42.306-37.533-55.9-65.944-23.591-49.312-7.094-101.953-1.511-117.353,17.946-49.5,54.179-75.584,67.313-84.135-1.267-1.362-62.608,53.247-64.2,51.613-86.512,11.887-77.1,5.712-83.339,20.52-14.42,34.218,8.408,46.786,9,145.471.279,47.167-4.807,65.794,10.5,85.483,17.5,22.515,37.677,15.55,62.982,44.989,19.451,22.617,16.333,36.962,34.5,46.486,19.526,10.246,31.965-1.7,53.989,3,36.792,7.843,44.662,50.272,68.98,73.481,18.4,17.552,52.4,29.82,119.47,16.653,1.552-2.26,2.3-4.466,2-6.529C3093.661,2311.292,3053.064,2320.708,3022.441,2291.719Z" transform="translate(-2729.367 -1843.143)" fill="url(#linear-gradient-51)"/>
        </g>
        <path id="Path_115" data-name="Path 115" d="M2693.73,1657.71s4.364,34.878,17.238,42.871,33.687,18.423,35.981,21.262-79.751,11.649-120.41-8.864c13.4-2.791,17.041-3.819,17.041-3.819a75.333,75.333,0,0,0,17.218-6.815,58.474,58.474,0,0,0,18.934-17.511l-.15-19.315Z" transform="translate(-2082.584 -1613.236)" fill="#f99b4d"/>
        <path id="Path_116" data-name="Path 116" d="M2715.093,1660.806s-8.395,11.519-21.554,6.72c-11.785-4.3-4.752-34.742,4.6-38.214,3.118-1.157,8.844-.647,12.67,1.743,2.7,1.682,9.879,10.607,5.76,20.615,2.975-.865,5.6-.082,6.257,1.4.838,1.872-1.688,4.418-2.26,4.99A9.945,9.945,0,0,1,2715.093,1660.806Z" transform="translate(-2101.993 -1603.982)" fill="#f99a4d"/>
        <g id="Group_23" data-name="Group 23" transform="translate(0 181.957)">
          <path id="Path_117" data-name="Path 117" d="M2807.225,2197.975q1.563,30.851-20.3,52.682l-729.45-281.015,20.3-52.682Z" transform="translate(-1900.951 -1877.941)" fill="url(#linear-gradient-52)"/>
          <path id="Path_118" data-name="Path 118" d="M2801.083,2244.187a63.838,63.838,0,0,0,7.707-19.785L2074.282,1941.44l-7.632,19.812Z" transform="translate(-1903.878 -1885.755)" fill="url(#linear-gradient-53)"/>
          <path id="Path_119" data-name="Path 119" d="M2004.391,1898.667c3.459,21.269-3.186,38.875-20.3,52.682l-155.635-88.241a1.867,1.867,0,0,1,1.321-3.425Z" transform="translate(-1827.568 -1859.648)" fill="url(#linear-gradient-54)"/>
          <path id="Path_120" data-name="Path 120" d="M1828.462,1863.115l60.5,34.3a49.292,49.292,0,0,0,8.721-22.569l-67.905-15.162A1.87,1.87,0,0,0,1828.462,1863.115Z" transform="translate(-1827.568 -1859.648)" fill="url(#linear-gradient-55)"/>
        </g>
        <path id="Path_121" data-name="Path 121" d="M2295.709,2075.191s-26.368-14.406-36.928-24.278-.694,14.583,5.045,21.473S2302.1,2092.225,2295.709,2075.191Z" transform="translate(-1963.713 -1737.999)" fill="url(#linear-gradient-56)"/>
        <path id="Path_122" data-name="Path 122" d="M2823.472,1766.47c26.042,12.9,107.917,51.606,125.781,163.26s-77.409,169.715-77.409,169.715l-22.331-14.89s23.822-174.181-61.035-223.3S2823.472,1766.47,2823.472,1766.47Z" transform="translate(-2124.576 -1647.95)" fill="url(#linear-gradient-57)"/>
        <path id="Path_123" data-name="Path 123" d="M2871.122,2237.512c-5.276.946-8.258,5.412-20.166-.545s-41.687,1.491-41.687,1.491,14.889,13.4,31.263,10.423,31.57,5.106,35.879,6.277,5.8-10.246,5.8-10.246Z" transform="translate(-2140.908 -1797.387)" fill="url(#linear-gradient-58)"/>
      </g>
      <g id="Group_27" data-name="Group 27" transform="translate(1189.61 84.335)">
        <g id="Group_25" data-name="Group 25" transform="translate(340.8 260.272)">
          <path id="Path_124" data-name="Path 124" d="M2835.786,1024.171c8.531,4.33,19.247.354,23.938-8.885s1.573-20.234-6.951-24.564a14.713,14.713,0,0,0-1.348-.592,108.244,108.244,0,0,0,3.581-15.414c.49,0,.98-.007,1.478-.054,9.729-.865,17.456-9.811,17.252-19.975s-8.258-17.7-17.987-16.837c-.51.048-1.008.123-1.5.211a98.9,98.9,0,0,0-4.167-14.719c.449-.259.892-.531,1.328-.837,8.326-5.835,10.988-17.347,5.943-25.715s-15.884-10.423-24.2-4.589c-.429.3-.831.62-1.226.946a87.6,87.6,0,0,0-10.8-10.076c.272-.449.545-.906.783-1.382,4.691-9.239,10.818-19.328,2.219-23.522-19.887-9.708-28.424-1.4-33.108,7.836-.245.477-.449.967-.654,1.45a88.231,88.231,0,0,0-14.508-2.771c.027-.511.055-1.028.041-1.552-.2-10.165,2.812-15.666-6.958-15.856-21.3-.415-28.492,8.83-28.288,18.995.014.531.054,1.048.109,1.566a99.151,99.151,0,0,0-14.345,5.324c-.225-.456-.449-.905-.715-1.341-5.045-8.367-15.884-10.423-24.21-4.589s-10.988,17.347-5.944,25.715c.259.429.545.831.831,1.225a108.328,108.328,0,0,0-10.335,11.989c-.415-.259-.831-.511-1.273-.735-8.531-4.33-19.247-.354-23.937,8.885s-1.573,20.234,6.951,24.564a14.713,14.713,0,0,0,1.348.592,108.344,108.344,0,0,0-3.581,15.414c-.49,0-.98.007-1.477.055-9.729.865-17.456,9.811-17.252,19.975s8.258,17.7,17.994,16.83c.51-.048,1.008-.123,1.5-.211a98.9,98.9,0,0,0,4.167,14.719c-.449.259-.892.531-1.327.837-8.326,5.835-10.989,17.347-5.944,25.714s21.739,12.255,30.065,6.427c.429-.3-5.031-2.458-4.63-2.785a87.627,87.627,0,0,0,10.8,10.076c-.272.449-.545.905-.783,1.382-4.691,9.239-1.573,20.234,6.951,24.564s19.247.354,23.938-8.885c.245-.477.449-.967.654-1.45a88.209,88.209,0,0,0,14.508,2.771c-.027.511-.054,1.028-.041,1.552.2,10.165,8.258,17.7,17.987,16.837s17.456-9.811,17.252-19.975c-.014-.531-.054-1.048-.109-1.566a99.158,99.158,0,0,0,14.345-5.324c.225.456.449.905.715,1.341,5.045,8.367,15.877,10.423,24.2,4.589s10.989-17.347,5.944-25.714c-.259-.429-.545-.831-.831-1.226a108.31,108.31,0,0,0,10.335-11.989A12.493,12.493,0,0,0,2835.786,1024.171Zm-106.337,1.348c-30.97-15.727-42.279-55.657-25.252-89.194s55.936-47.971,86.906-32.25,42.279,55.657,25.252,89.194S2760.419,1041.246,2729.449,1025.519Z" transform="translate(-2646.813 -847.26)" fill="url(#linear-gradient-59)"/>
          <path id="Path_125" data-name="Path 125" d="M2899.041,983.637c9.729-.865,17.456-9.811,17.252-19.975s-8.258-17.7-17.987-16.837c-.511.048-1.008.123-1.5.211a98.839,98.839,0,0,0-4.167-14.719c.449-.259.892-.531,1.328-.837,8.327-5.835,18.627-19.928,12.752-27.737-11.152-14.821-22.685-8.4-31.011-2.573-.428.3-.83.62-1.225.946a87.622,87.622,0,0,0-10.8-10.076c.272-.449.545-.906.783-1.382a19.356,19.356,0,0,0,1.089-15.278q-12.061,21.231-23.768,42.66c24.707,18.1,32.578,53.785,17.13,84.2-13.085,25.776-39.1,40.25-64.508,38.439-1.13,2.941-2.247,5.9-3.459,8.8-3.3,7.9-7.033,15.632-10.777,23.359,2.355.443,4.725.8,7.094,1.042-.027.511-.054,1.028-.041,1.552.2,10.165,6.372,18.8,24.012,17.865,9.756-.517,11.431-10.846,11.227-21-.014-.531-.054-1.048-.109-1.566a99.172,99.172,0,0,0,14.345-5.324c.225.456.449.905.715,1.341,5.045,8.367,22.535,11.928,30.861,6.093s4.33-18.845-.708-27.219c-.259-.429-.545-.831-.831-1.226a108.35,108.35,0,0,0,10.335-11.989c.416.259.831.511,1.273.735,8.531,4.33,19.247.354,23.937-8.885s1.573-20.234-6.951-24.564c-.443-.225-.892-.415-1.348-.592a108.31,108.31,0,0,0,3.581-15.414C2898.054,983.685,2898.544,983.678,2899.041,983.637Z" transform="translate(-2689.378 -856.236)" fill="url(#linear-gradient-60)"/>
          <path id="Path_126" data-name="Path 126" d="M2849.256,1025.222c8.531,4.33,19.247.354,23.938-8.885s1.573-20.234-6.951-24.564a14.684,14.684,0,0,0-1.348-.592,108.205,108.205,0,0,0,3.581-15.414c.49,0,.98-.007,1.478-.054,9.729-.865,17.456-9.81,17.252-19.975s-8.258-17.7-17.988-16.837c-.51.048-1.007.122-1.5.211a98.868,98.868,0,0,0-4.167-14.719c.449-.259.892-.531,1.328-.837,8.326-5.835,10.989-17.347,5.943-25.715s-15.877-10.423-24.2-4.589c-.429.3-.83.62-1.225.946a87.644,87.644,0,0,0-10.8-10.076c.272-.449.545-.906.783-1.382,4.691-9.239,1.573-20.234-6.951-24.564s-19.247-.354-23.937,8.885c-.245.477-.449.967-.654,1.45a88.2,88.2,0,0,0-14.508-2.771c.027-.511.055-1.028.041-1.545-.2-10.165-8.258-17.7-17.994-16.837s-17.456,9.81-17.252,19.975c.014.531.055,1.048.109,1.566a99.148,99.148,0,0,0-14.345,5.324c-.225-.456-.449-.906-.715-1.341-5.045-8.367-15.876-10.423-24.21-4.589s-10.988,17.347-5.944,25.715c.259.429.538.831.831,1.225a108.251,108.251,0,0,0-10.335,11.989c-.416-.259-.831-.511-1.273-.735-8.531-4.33-19.247-.354-23.938,8.885s-1.58,20.234,6.951,24.564c.442.225.892.415,1.348.592a108.31,108.31,0,0,0-3.581,15.414c-.49,0-.98.007-1.477.055-9.729.871-17.456,9.811-17.252,19.975s8.258,17.7,17.994,16.837c.511-.048,1.008-.123,1.5-.211a98.867,98.867,0,0,0,4.167,14.719c-.449.259-.892.531-1.327.837-8.326,5.835-10.988,17.347-5.944,25.715s15.884,10.423,24.2,4.589c.429-.3.831-.62,1.226-.946a87.619,87.619,0,0,0,10.8,10.076c-.272.449-.545.906-.783,1.382-4.691,9.239-1.573,20.234,6.951,24.564s19.247.354,23.938-8.885c.245-.477.449-.967.653-1.45a88.228,88.228,0,0,0,14.509,2.771c-.027.51-.054,1.028-.041,1.552.2,10.165,8.258,17.7,17.994,16.83s17.456-9.811,17.252-19.975c-.013-.531-.054-1.048-.109-1.566a99.175,99.175,0,0,0,14.345-5.324c.224.456.449.905.715,1.341,5.045,8.367,15.877,10.423,24.2,4.589s10.988-17.347,5.944-25.714c-.259-.429-.538-.831-.831-1.225a107.5,107.5,0,0,0,10.328-11.989C2848.4,1024.746,2848.813,1025,2849.256,1025.222Zm-106.337,1.348c-30.97-15.727-42.272-55.657-25.251-89.194s55.936-47.971,86.906-32.25,42.279,55.657,25.252,89.194S2773.889,1042.3,2742.919,1026.57Z" transform="translate(-2651.113 -847.27)" fill="url(#linear-gradient-61)"/>
        </g>
        <g id="Group_26" data-name="Group 26">
          <path id="Path_127" data-name="Path 127" d="M2455.795,754.773c13.97,7.094,31.529.579,39.208-14.549s2.58-33.149-11.39-40.243c-.722-.368-1.464-.674-2.206-.974a177.755,177.755,0,0,0,5.869-25.252c.8,0,1.607-.014,2.424-.089,15.945-1.423,28.594-16.067,28.261-32.72s-13.528-29-29.473-27.58c-.831.075-1.654.2-2.465.354a162.739,162.739,0,0,0-6.829-24.115c.735-.429,1.464-.871,2.178-1.375,13.637-9.559,18-28.417,9.743-42.129s-26.014-17.075-39.651-7.523c-.7.49-1.355,1.021-2.008,1.552a143.812,143.812,0,0,0-17.688-16.51c.449-.735.892-1.484,1.287-2.267,7.68-15.128,17.722-31.658,3.636-38.534-32.577-15.9-46.561-2.288-54.241,12.84-.395.783-.742,1.579-1.069,2.376a143.865,143.865,0,0,0-23.767-4.534c.048-.844.088-1.682.075-2.539-.333-16.653,4.609-25.66-11.4-25.973-34.9-.681-46.67,14.467-46.336,31.12.021.871.088,1.723.177,2.567a162.392,162.392,0,0,0-23.495,8.721c-.361-.742-.742-1.477-1.171-2.2-8.258-13.712-26.014-17.075-39.657-7.523s-18,28.417-9.742,42.129c.422.7.885,1.362,1.354,2.008a177.658,177.658,0,0,0-16.925,19.635c-.674-.422-1.361-.837-2.083-1.205-13.97-7.094-31.529-.579-39.208,14.549s-2.581,33.149,11.39,40.243c.722.368,1.464.674,2.206.974a177.749,177.749,0,0,0-5.869,25.252c-.8,0-1.607.014-2.424.089-15.945,1.423-28.594,16.074-28.261,32.72s13.528,29,29.473,27.573c.831-.075,1.654-.2,2.465-.347a162.742,162.742,0,0,0,6.829,24.115c-.735.429-1.464.871-2.179,1.375-13.637,9.559-18,28.417-9.743,42.129s35.607,20.077,49.251,10.526c.7-.49-8.238-4.024-7.584-4.555a143.823,143.823,0,0,0,17.688,16.51c-.449.735-.892,1.484-1.287,2.267-7.68,15.128-2.58,33.149,11.39,40.243s31.529.579,39.208-14.549c.395-.783.742-1.579,1.069-2.376a143.861,143.861,0,0,0,23.767,4.534c-.048.844-.088,1.682-.075,2.539.333,16.653,13.528,29,29.473,27.573s28.594-16.074,28.261-32.72c-.021-.871-.088-1.722-.177-2.567a162.374,162.374,0,0,0,23.5-8.721c.361.742.742,1.484,1.171,2.2,8.258,13.712,26.014,17.075,39.651,7.523s18-28.417,9.743-42.129c-.422-.7-.885-1.362-1.355-2.008a177.628,177.628,0,0,0,16.925-19.635C2454.385,753.99,2455.066,754.406,2455.795,754.773ZM2281.6,756.986c-50.735-25.762-69.253-91.175-41.36-146.11s91.631-78.587,142.366-52.832,69.253,91.175,41.36,146.111S2332.335,782.741,2281.6,756.986Z" transform="translate(-2146.24 -464.968)" fill="url(#linear-gradient-62)"/>
          <path id="Path_128" data-name="Path 128" d="M2559.421,688.37c15.945-1.423,28.594-16.074,28.261-32.72s-13.528-29-29.473-27.573c-.831.075-1.654.2-2.465.354a162.713,162.713,0,0,0-6.829-24.115c.736-.429,1.464-.871,2.179-1.375,13.637-9.559,30.514-32.645,20.894-45.438-18.266-24.271-37.166-13.766-50.8-4.214-.7.49-1.355,1.021-2.009,1.552a143.808,143.808,0,0,0-17.688-16.51c.449-.735.892-1.484,1.287-2.267a31.769,31.769,0,0,0,1.791-25.034q-19.761,34.783-38.936,69.886c40.475,29.656,53.363,88.1,28.063,137.941-21.439,42.224-64.058,65.937-105.67,62.969-1.859,4.813-3.676,9.654-5.664,14.42-5.392,12.936-11.52,25.612-17.66,38.262q5.79,1.093,11.621,1.709c-.048.844-.088,1.682-.075,2.539.333,16.653,10.444,30.8,39.338,29.268,15.986-.844,18.729-17.763,18.4-34.409-.021-.872-.088-1.722-.177-2.567a162.381,162.381,0,0,0,23.5-8.721c.361.742.742,1.477,1.171,2.2,8.258,13.712,36.914,19.533,50.558,9.981s7.1-30.875-1.164-44.587c-.422-.7-.885-1.362-1.355-2.008a177.639,177.639,0,0,0,16.926-19.635c.674.422,1.362.837,2.083,1.205,13.97,7.094,31.529.579,39.208-14.549s2.58-33.149-11.39-40.243c-.721-.368-1.464-.674-2.206-.974A177.718,177.718,0,0,0,2557,688.465C2557.8,688.458,2558.6,688.445,2559.421,688.37Z" transform="translate(-2215.968 -479.67)" fill="url(#linear-gradient-63)"/>
          <path id="Path_129" data-name="Path 129" d="M2477.868,756.491c13.97,7.094,31.528.579,39.208-14.549s2.581-33.149-11.39-40.243c-.722-.368-1.464-.674-2.206-.974a177.749,177.749,0,0,0,5.869-25.252c.8,0,1.607-.014,2.424-.089,15.945-1.423,28.594-16.074,28.261-32.72s-13.528-29-29.473-27.58c-.831.075-1.654.2-2.465.354a162.739,162.739,0,0,0-6.829-24.115c.735-.429,1.464-.871,2.179-1.375,13.637-9.559,18-28.417,9.743-42.129s-26.014-17.075-39.651-7.523c-.7.49-1.355,1.021-2.008,1.552a143.787,143.787,0,0,0-17.688-16.51c.449-.735.892-1.484,1.287-2.267,7.68-15.128,2.581-33.149-11.39-40.243s-31.529-.579-39.208,14.549c-.4.783-.742,1.58-1.069,2.376a143.859,143.859,0,0,0-23.767-4.534c.047-.844.088-1.682.068-2.539-.334-16.653-13.528-29-29.473-27.573s-28.595,16.074-28.261,32.72c.021.871.089,1.723.177,2.567a162.37,162.37,0,0,0-23.5,8.721c-.361-.742-.742-1.484-1.171-2.2-8.258-13.712-26.014-17.075-39.651-7.523s-18,28.417-9.742,42.129c.422.7.885,1.362,1.355,2.008a177.672,177.672,0,0,0-16.925,19.635c-.674-.422-1.362-.837-2.083-1.205-13.97-7.094-31.529-.579-39.208,14.549s-2.58,33.149,11.39,40.243c.722.368,1.464.674,2.206.974a177.719,177.719,0,0,0-5.869,25.252c-.8,0-1.607.014-2.424.089-15.945,1.423-28.594,16.074-28.261,32.72s13.528,29,29.473,27.573c.83-.075,1.654-.2,2.464-.347a162.771,162.771,0,0,0,6.829,24.115c-.735.429-1.463.871-2.178,1.375-13.637,9.559-18,28.417-9.742,42.129s26.014,17.075,39.651,7.523c.7-.49,1.354-1.021,2.008-1.552a143.812,143.812,0,0,0,17.688,16.51c-.449.735-.892,1.484-1.287,2.267-7.679,15.128-2.58,33.149,11.39,40.243s31.529.579,39.208-14.549c.4-.783.742-1.58,1.069-2.376a143.856,143.856,0,0,0,23.767,4.534c-.048.844-.089,1.682-.075,2.539.333,16.653,13.528,29,29.473,27.573s28.595-16.074,28.261-32.72c-.021-.872-.088-1.722-.177-2.567a162.4,162.4,0,0,0,23.5-8.721c.361.742.742,1.477,1.171,2.2,8.258,13.712,26.014,17.075,39.651,7.523s18-28.417,9.743-42.129c-.422-.7-.885-1.362-1.355-2.008a177.648,177.648,0,0,0,16.925-19.635C2476.458,755.708,2477.146,756.124,2477.868,756.491ZM2303.673,758.7c-50.734-25.762-69.253-91.175-41.36-146.11s91.632-78.587,142.366-52.832,69.253,91.175,41.36,146.111S2354.408,784.459,2303.673,758.7Z" transform="translate(-2153.288 -464.977)" fill="url(#linear-gradient-64)"/>
        </g>
      </g>
    </g>
  </g>
</svg>
