<svg width="20" height="23" viewBox="0 0 20 23" fill="none" xmlns="http://www.w3.org/2000/svg">
<path d="M13.6 22.6999C12.3342 22.6999 11.0968 22.3246 10.0443 21.6213C8.99183 20.9181 8.17153 19.9185 7.68712 18.7491C7.20272 17.5796 7.07598 16.2928 7.32293 15.0513C7.56987 13.8098 8.17941 12.6695 9.07447 11.7744C9.96953 10.8794 11.1099 10.2698 12.3514 10.0229C13.5929 9.77593 14.8797 9.90268 16.0491 10.3871C17.2186 10.8715 18.2181 11.6918 18.9214 12.7443C19.6246 13.7967 20 15.0341 20 16.2999C20 17.9973 19.3257 19.6252 18.1254 20.8254C16.9252 22.0256 15.2973 22.6999 13.6 22.6999ZM13.6 11.4999C12.6506 11.4999 11.7226 11.7814 10.9332 12.3089C10.1439 12.8363 9.52863 13.5859 9.16533 14.463C8.80203 15.3401 8.70698 16.3052 8.89218 17.2363C9.07739 18.1674 9.53455 19.0227 10.2058 19.694C10.8771 20.3653 11.7324 20.8225 12.6635 21.0077C13.5946 21.1929 14.5597 21.0978 15.4368 20.7345C16.3139 20.3712 17.0636 19.756 17.591 18.9666C18.1184 18.1773 18.4 17.2493 18.4 16.2999C18.4 15.0269 17.8942 13.806 16.9941 12.9058C16.0939 12.0056 14.873 11.4999 13.6 11.4999Z" fill="#6C6C6C"/>
<path d="M14.872 18.7001L12.8 16.6281V13.1001H14.4V15.9721L16 17.5721L14.872 18.7001Z" fill="#6C6C6C"/>
<path d="M19.2 3.4998C19.2 3.07546 19.0314 2.66849 18.7314 2.36843C18.4313 2.06838 18.0243 1.8998 17.6 1.8998H14.4V0.299805H12.8V1.8998H6.4V0.299805H4.8V1.8998H1.6C1.17565 1.8998 0.768687 2.06838 0.468629 2.36843C0.168571 2.66849 0 3.07546 0 3.4998V19.4998C0 19.9241 0.168571 20.3311 0.468629 20.6312C0.768687 20.9312 1.17565 21.0998 1.6 21.0998H4.8V19.4998H1.6V3.4998H4.8V5.0998H6.4V3.4998H12.8V5.0998H14.4V3.4998H17.6V8.2998H19.2V3.4998Z" fill="#6C6C6C"/>
</svg>
