<svg width="33" height="32" viewBox="0 0 33 32" fill="none" xmlns="http://www.w3.org/2000/svg">
<path fill-rule="evenodd" clip-rule="evenodd" d="M29.281 4.40507H19.151V2.01807L2.5 4.58807V27.1151L19.151 29.9831V26.4451H29.281C29.5878 26.4606 29.8883 26.354 30.1167 26.1487C30.3451 25.9433 30.4829 25.6558 30.5 25.3491V5.50007C30.4827 5.19353 30.3448 4.9063 30.1164 4.70113C29.888 4.49596 29.5876 4.38952 29.281 4.40507ZM29.441 25.5311H19.117L19.1 23.6421H21.587V21.4421H19.081L19.069 20.1421H21.587V17.9421H19.05L19.038 16.6421H21.587V14.4421H19.03V13.1421H21.587V10.9421H19.03V9.64207H21.587V7.44207H19.03V5.44207H29.441V25.5311Z" fill="#20744A"/>
<path d="M22.9883 7.43896H27.3113V9.63896H22.9883V7.43896ZM22.9883 10.94H27.3113V13.14H22.9883V10.94ZM22.9883 14.441H27.3113V16.641H22.9883V14.441ZM22.9883 17.942H27.3113V20.142H22.9883V17.942ZM22.9883 21.443H27.3113V23.643H22.9883V21.443Z" fill="#20744A"/>
<path fill-rule="evenodd" clip-rule="evenodd" d="M6.84806 10.6729L8.99406 10.5499L10.3431 14.2589L11.9371 10.3969L14.0831 10.2739L11.4771 15.5399L14.0831 20.8189L11.8141 20.6659L10.2821 16.6419L8.74906 20.5129L6.66406 20.3289L9.08606 15.6659L6.84806 10.6729Z" fill="white"/>
</svg>
