<svg width="32" height="32" viewBox="0 0 32 32" fill="none" xmlns="http://www.w3.org/2000/svg">
<path fill-rule="evenodd" clip-rule="evenodd" d="M24.8182 4.13637H27.9205C28.7433 4.13637 29.5323 4.46321 30.1141 5.045C30.6959 5.62679 31.0228 6.41587 31.0228 7.23864V27.9205C31.0228 28.7433 30.6959 29.5323 30.1141 30.1141C29.5323 30.6959 28.7433 31.0228 27.9205 31.0228H3.10228C2.2795 31.0228 1.49043 30.6959 0.908636 30.1141C0.326846 29.5323 0 28.7433 0 27.9205L0 7.23864C0 6.41587 0.326846 5.62679 0.908636 5.045C1.49043 4.46321 2.2795 4.13637 3.10228 4.13637H6.20455V0H8.27274V4.13637H22.75V0H24.8182V4.13637ZM12.4091 16.5455H6.20455V14.4773H12.4091V16.5455ZM24.8182 14.4773H18.6137V16.5455H24.8182V14.4773ZM12.4091 22.75H6.20455V20.6818H12.4091V22.75ZM18.6137 22.75H24.8182V20.6818H18.6137V22.75Z" fill="#3A3A3A"/>
</svg>
