<svg width="24" height="22" viewBox="0 0 24 22" fill="none" xmlns="http://www.w3.org/2000/svg">
<path d="M11.545 0.0119629C9.26162 0.0119629 7.02951 0.656394 5.13095 1.86377C3.23238 3.07114 1.75263 4.78722 0.878816 6.795C0.00500227 8.80279 -0.223627 11.0121 0.221839 13.1435C0.667305 15.275 1.76686 17.2329 3.38146 18.7696C4.99605 20.3062 7.05317 21.3527 9.29269 21.7767C11.5322 22.2007 13.8535 21.9831 15.9631 21.1514C18.0727 20.3198 19.8757 18.9114 21.1443 17.1045C22.4129 15.2975 23.09 13.1731 23.09 10.9999C23.0868 8.08667 21.8694 5.29363 19.705 3.23365C17.5406 1.17368 14.6059 0.0150393 11.545 0.0119629ZM11.101 5.08332C11.3644 5.08332 11.622 5.15768 11.841 5.29699C12.0601 5.4363 12.2309 5.63431 12.3317 5.86598C12.4325 6.09765 12.4589 6.35257 12.4075 6.5985C12.3561 6.84444 12.2292 7.07035 12.0429 7.24766C11.8566 7.42497 11.6193 7.54572 11.3608 7.59464C11.1024 7.64356 10.8346 7.61845 10.5912 7.52249C10.3478 7.42653 10.1397 7.26403 9.99335 7.05553C9.84698 6.84704 9.76885 6.60192 9.76885 6.35116C9.76885 6.01491 9.9092 5.69243 10.159 5.45466C10.4088 5.2169 10.7477 5.08332 11.101 5.08332ZM12.4331 16.9165C11.962 16.9165 11.5102 16.7384 11.1771 16.4214C10.8441 16.1043 10.6569 15.6744 10.6569 15.226V10.9999C10.4214 10.9999 10.1955 10.9109 10.029 10.7523C9.86241 10.5938 9.76885 10.3788 9.76885 10.1547C9.76885 9.93051 9.86241 9.71552 10.029 9.55701C10.1955 9.3985 10.4214 9.30945 10.6569 9.30945C11.128 9.30945 11.5798 9.48755 11.9129 9.80458C12.2459 10.1216 12.4331 10.5516 12.4331 10.9999V15.226C12.6686 15.226 12.8945 15.3151 13.061 15.4736C13.2276 15.6321 13.3212 15.8471 13.3212 16.0713C13.3212 16.2954 13.2276 16.5104 13.061 16.6689C12.8945 16.8274 12.6686 16.9165 12.4331 16.9165Z" fill="#F27766"/>
</svg>
