<svg width="14" height="18" viewBox="0 0 14 18" fill="none" xmlns="http://www.w3.org/2000/svg">
<path d="M6.99996 11.0004C8.93019 11.0004 10.4999 9.43068 10.4999 7.50045C10.4999 5.57022 8.93019 4.00049 6.99996 4.00049C5.06973 4.00049 3.5 5.57022 3.5 7.50045C3.5 9.43068 5.06973 11.0004 6.99996 11.0004ZM6.99996 5.75047C7.96508 5.75047 8.74994 6.53534 8.74994 7.50045C8.74994 8.46556 7.96508 9.25043 6.99996 9.25043C6.03485 9.25043 5.24998 8.46556 5.24998 7.50045C5.24998 6.53534 6.03485 5.75047 6.99996 5.75047Z" fill="#4893C1"/>
<path d="M6.49251 17.8375C6.6406 17.9433 6.81802 18.0002 7 18.0002C7.18198 18.0002 7.35941 17.9433 7.50749 17.8375C7.77349 17.6494 14.0253 13.1353 13.9999 7.50041C13.9999 3.64083 10.8596 0.500488 7 0.500488C3.14042 0.500488 7.70322e-05 3.64083 7.70322e-05 7.49604C-0.0252977 13.1353 6.22651 17.6494 6.49251 17.8375ZM7 2.25047C9.89534 2.25047 12.2499 4.60507 12.2499 7.50479C12.2683 11.388 8.41048 14.8748 7 16.0184C5.59039 14.874 1.73168 11.3862 1.75006 7.50041C1.75006 4.60507 4.10466 2.25047 7 2.25047Z" fill="#4893C1"/>
</svg>
