<svg width="17" height="13" viewBox="0 0 17 13" fill="none" xmlns="http://www.w3.org/2000/svg">
<path d="M1.88 0.848145H15.13C16.38 0.848145 17.01 1.43814 17.01 2.63814V11.0581C17.01 12.2481 16.38 12.8481 15.13 12.8481H1.88C0.63 12.8481 0 12.2481 0 11.0581V2.63814C0 1.43814 0.63 0.848145 1.88 0.848145ZM8.5 9.44814L15.24 3.91814C15.48 3.71814 15.67 3.25814 15.37 2.84814C15.08 2.43814 14.55 2.42814 14.2 2.67814L8.5 6.53814L2.81 2.67814C2.46 2.42814 1.93 2.43814 1.64 2.84814C1.34 3.25814 1.53 3.71814 1.77 3.91814L8.5 9.44814Z" fill="#F3A28A"/>
</svg>
