<svg width="29" height="26" viewBox="0 0 29 26" fill="none" xmlns="http://www.w3.org/2000/svg">
<rect x="0.75" y="1.12329" width="27.5" height="23.875" rx="4.25" stroke="#6C6C6C" stroke-width="1.5"/>
<path d="M14.749 16.5H13.737L13.473 13.079C13.363 11.737 13.3007 10.7067 13.286 9.988L11.647 15.642H10.668L8.94105 9.977C8.94105 10.8937 8.89338 11.9533 8.79805 13.156L8.54505 16.5H7.55505L8.18205 8.921H9.59005L11.185 14.432L12.703 8.921H14.122L14.749 16.5ZM19.8786 12.496C20.3992 12.584 20.8209 12.7673 21.1436 13.046C21.4662 13.3247 21.6276 13.7573 21.6276 14.344C21.6276 15.7813 20.6266 16.5 18.6246 16.5H16.5346V8.921H18.3276C19.2882 8.921 20.0216 9.07867 20.5276 9.394C21.0409 9.70933 21.2976 10.1897 21.2976 10.835C21.2976 11.275 21.1582 11.6417 20.8796 11.935C20.6082 12.2283 20.2746 12.4153 19.8786 12.496ZM17.5796 9.746V12.133H18.7236C19.1636 12.133 19.5229 12.0267 19.8016 11.814C20.0876 11.6013 20.2306 11.3007 20.2306 10.912C20.2306 10.472 20.0802 10.1677 19.7796 9.999C19.4862 9.83033 19.0389 9.746 18.4376 9.746H17.5796ZM18.6246 15.664C19.2406 15.664 19.7099 15.5723 20.0326 15.389C20.3626 15.2057 20.5276 14.8573 20.5276 14.344C20.5276 13.8453 20.3699 13.486 20.0546 13.266C19.7392 13.046 19.3286 12.936 18.8226 12.936H17.5796V15.664H18.6246Z" fill="#6C6C6C"/>
</svg>
