<svg xmlns="http://www.w3.org/2000/svg" width="97" height="60" viewBox="0 0 97 60">
  <g id="Group_2317" data-name="Group 2317" transform="translate(5105 -19273)">
    <g id="Group_2315" data-name="Group 2315" transform="translate(-5913 18994)">
      <g id="Group_2315-2" data-name="Group 2315" transform="translate(830 275)">
        <g id="Group_2315-3" data-name="Group 2315" transform="translate(-641 -322)">
          <path id="Path_4234" data-name="Path 4234" d="M676,326a1,1,0,0,1,1,1v2h2a4,4,0,0,1,4,4v19.836a3.994,3.994,0,0,1-.493,1.923,22.432,22.432,0,0,1-8.748,8.748,3.993,3.993,0,0,1-1.923.493H651a4,4,0,0,1-4-4V333a4,4,0,0,1,4-4h2v-2a1,1,0,0,1,2,0v2h20v-2A1,1,0,0,1,676,326Zm5,12H649v22a2,2,0,0,0,1.851,1.995L651,362h18.286v0H671l.117-.007a1,1,0,0,0,.876-.876L672,361v-4l.005-.2a4,4,0,0,1,3.789-3.795L676,353h4l.117-.007a1,1,0,0,0,.876-.876L681,352Zm-.963,17H676l-.149.005a2,2,0,0,0-1.845,1.838L674,357v4.037A20.682,20.682,0,0,0,680.037,355ZM653,331h-2a2,2,0,0,0-1.995,1.851L649,333v3h32v-3a2,2,0,0,0-1.851-1.995L679,331h-2v2a1,1,0,0,1-2,0v-2H655v2a1,1,0,0,1-2,0Z" fill="#f79e88"/>
        </g>
      </g>
      <g id="Group_2316" data-name="Group 2316" transform="translate(-334.826 222.348)">
        <path id="close_3_" data-name="close (3)" d="M7.757.457,7.3,0,3.878,3.421.457,0,0,.457,3.421,3.878,0,7.3l.457.457L3.878,4.335,7.3,7.757,7.757,7.3,4.335,3.878Z" transform="translate(1184.826 73.652)" fill="#f79e88" stroke="#f79e88" stroke-linejoin="round" stroke-width="1"/>
      </g>
    </g>
    <text id="NO_SLOT_AVAILABLE" data-name="NO SLOT AVAILABLE" transform="translate(-5105 19330)" fill="#f79e88" font-size="10" font-family="SegoeUI-Bold, Segoe UI" font-weight="700"><tspan x="0" y="0">NO SLOT AVAILABLE</tspan></text>
  </g>
</svg>
