<svg xmlns="http://www.w3.org/2000/svg" width="11" height="15.231" viewBox="0 0 11 15.231">
  <path id="phone-red" d="M0,2.137A1.784,1.784,0,0,1,.644.791,2.385,2.385,0,0,1,2.2.233H8.8a2.385,2.385,0,0,1,1.556.558A1.784,1.784,0,0,1,11,2.137V13.56a1.784,1.784,0,0,1-.644,1.346,2.385,2.385,0,0,1-1.556.558H2.2a2.385,2.385,0,0,1-1.556-.558A1.784,1.784,0,0,1,0,13.56ZM6.6,12.608a.892.892,0,0,0-.322-.673,1.224,1.224,0,0,0-1.556,0,.864.864,0,0,0,0,1.346,1.224,1.224,0,0,0,1.556,0A.892.892,0,0,0,6.6,12.608Z" transform="translate(0 -0.232)" fill="#d10303"/>
</svg>
