<svg width="11" height="16" viewBox="0 0 11 16" fill="none" xmlns="http://www.w3.org/2000/svg">
<path d="M0 2.13676C0 1.63182 0.231785 1.14757 0.644365 0.790534C1.05694 0.433493 1.61652 0.23291 2.2 0.23291L8.8 0.23291C9.38348 0.23291 9.94306 0.433493 10.3556 0.790534C10.7682 1.14757 11 1.63182 11 2.13676V13.5598C11 14.0648 10.7682 14.549 10.3556 14.9061C9.94306 15.2631 9.38348 15.4637 8.8 15.4637H2.2C1.61652 15.4637 1.05694 15.2631 0.644365 14.9061C0.231785 14.549 0 14.0648 0 13.5598V2.13676ZM6.6 12.6079C6.6 12.3554 6.48411 12.1133 6.27782 11.9348C6.07153 11.7563 5.79174 11.656 5.5 11.656C5.20826 11.656 4.92847 11.7563 4.72218 11.9348C4.51589 12.1133 4.4 12.3554 4.4 12.6079C4.4 12.8604 4.51589 13.1025 4.72218 13.281C4.92847 13.4595 5.20826 13.5598 5.5 13.5598C5.79174 13.5598 6.07153 13.4595 6.27782 13.281C6.48411 13.1025 6.6 12.8604 6.6 12.6079Z" fill="#F3A28A"/>
</svg>
