<svg width="28" height="27" viewBox="0 0 28 27" fill="none" xmlns="http://www.w3.org/2000/svg">
<path fill-rule="evenodd" clip-rule="evenodd" d="M25.0617 3.6H22.3617V0H20.5617V3.6H7.96172V0H6.16172V3.6H3.46172C2.74563 3.6 2.05888 3.88446 1.55253 4.39081C1.04618 4.89716 0.761719 5.58392 0.761719 6.3L0.761719 24.3C0.761719 25.0161 1.04618 25.7028 1.55253 26.2092C2.05888 26.7155 2.74563 27 3.46172 27H25.0617C25.7778 27 26.4646 26.7155 26.9709 26.2092C27.4773 25.7028 27.7617 25.0161 27.7617 24.3V6.3C27.7617 5.58392 27.4773 4.89716 26.9709 4.39081C26.4646 3.88446 25.7778 3.6 25.0617 3.6ZM13.4049 20.2176L20.3385 12.2922L18.9849 11.1078L13.3185 17.5842L10.3989 14.6628L9.12452 15.9372L13.4049 20.2176Z" fill="#20744A"/>
</svg>
