<svg xmlns="http://www.w3.org/2000/svg" width="2719.095" height="1476.797" viewBox="0 0 2719.095 1476.797">
  <g id="rsvp-img" transform="translate(-161.58 -228.173)">
    <g id="Group_2955" data-name="Group 2955">
      <path id="Path_2262" data-name="Path 2262" d="M2722.84,1701.54s-2427.85,3.33-2460.74,3.42c0,0-295.17-745.56,298.37-962.52C997.55,582.67,830.16,466.06,1025.69,318.3q12.615-9.525,27.46-18.62a425.28,425.28,0,0,1,38.9-20.96c90.77-43.23,178.07-56.18,260.33-48.43,7.21.67,14.38,1.52,21.51,2.51,4.95.68,9.86,1.44,14.77,2.28,2.78.45,5.55.95,8.31,1.47,173.49,32.32,322.27,152.87,430.86,265.11,168.1,173.72,425.09-92.69,703.06,112.56s-13.3,479.19,176.87,511.53c271.62,46.2,181.28,389.26,15.09,575.79Z" fill="#ebf3fa"/>
      <g id="Group_2955-2" data-name="Group 2955">
        <path id="Path_2263" data-name="Path 2263" d="M2309.45,1699.53c7.9-4.82,3.41-40.81,3.41-40.81s-36.83-29.46-41.89-6.91-34.99,32.69-52.02,35.45c-11.76,1.91-15.4,8.42-16.53,12.27h107.04Z" fill="#132642"/>
        <path id="Path_2264" data-name="Path 2264" d="M2469.53,1699.53c7.9-4.82,3.41-40.81,3.41-40.81s-36.83-29.46-41.89-6.91-34.99,32.69-52.02,35.45c-11.76,1.91-15.4,8.42-16.53,12.27h107.04Z" fill="#1d3356"/>
        <path id="Path_2265" data-name="Path 2265" d="M2443.85,1184.05c0,35.46-13.77,85.41-13.77,85.41-10.49,50.83-101.53,397.26-110.3,400.57-14.62,5.51-51.9-6.06-51.32-11.25,28.38-254.65,38.38-465.98,40.02-474.16,4.67-3.61,117.75-40.07,135.37-.56Z" fill="#163560"/>
        <path id="Path_2266" data-name="Path 2266" d="M2339.29,748.92s24.87-27.13,32.56-28.04,39.35,14.26,41.16,20.25-34.82-5.98-36.86,0-4.3,10.06-14.7,10.51-19.45,6.33-19.45,6.33l-2.71-9.04Z" fill="#ffb27d"/>
        <path id="Path_2267" data-name="Path 2267" d="M2387.86,865.63l.03,6.39s-1.43,19.99,18.77,22.9c20.19,2.93,35.49-7.79,34.94-23.22-1.82-11.94-3.82-20.14-3.95-30.02a84.722,84.722,0,0,1,.72-11.97l-39.13-.95-11.52,2.29.15,34.57Z" fill="#ffb27d"/>
        <path id="Path_2268" data-name="Path 2268" d="M2387.71,831.06l.11,25.73c44.31-3.31,49.98-22.67,50.54-27.07l-39.13-.95-11.52,2.29Z" fill="#e8945b"/>
        <path id="Path_2269" data-name="Path 2269" d="M2379.03,847.86s61.08,12.34,68.18-25.82,19.76-62.26-18.94-71.75-49,3.65-54.47,15.81-10.48,77.56,5.23,81.75Z" fill="#ffb27d"/>
        <path id="Path_2270" data-name="Path 2270" d="M2342.44,1152.11c66.48,302.74,75,513.79,75,513.79s19.93,5.82,59.67.87c0,0,9.1-134.11,13.73-234.58,1.36-29.45,15.23-203.35-3.89-287.66-7.71-33.97-152.06-26.79-144.51,7.58Z" fill="#1c468a"/>
        <path id="Path_2271" data-name="Path 2271" d="M2306.64,1186.13s19.74,17.97,71.88,17.64c32.78-.21,77.1-7.84,96.92-11.94,26.67-5.53,22.43-15.18,20.27-34.93-2.77-25.31-3.89-71.19,10.35-148.98q3.15-17.22,7.35-36.55c11.98-54.9-57.04-86.7-65.94-99.66-50.69,46.5-64.85,3.36-64.85,3.36h-.01c-.5-.01-24.03,3.4-45.51-9.45-20.53-12.28-18.79,66.26-18.82,91.61-.03,27.23-5.69,94.38-6.48,123.97-1.02,38.4-5.17,104.92-5.17,104.92Z" fill="#aec3ff"/>
        <path id="Path_2272" data-name="Path 2272" d="M2222.6,821.85a64.639,64.639,0,0,0,1.78,6.91c0,.01.01.01.01.02,15.02,47.65,77.64,102.18,85.96,119.97,4.89,10.45,6.9,41.24,6.74,40.27l45.9-103.57s-66.08-49.65-68.85-56.7c-4.2-10.67,60.44-69.29,60.44-69.29s3.22-5.08-.73-14.39c-3.09-7.27-8.24-9.36-8.24-9.36s-127.57,62.67-123.01,86.13Z" fill="#aec3ff"/>
        <path id="Path_2273" data-name="Path 2273" d="M2494.68,1098.9c4.69-32.04,4.9-39.31,16.44-117.08-4.34.88-12.31,6.42-26.77,6.03-19.78-.54-28.27,63.97,10.34,111.05Z" fill="#91b0f2"/>
        <path id="Path_2274" data-name="Path 2274" d="M2511.29,1114.37s-31.7-19.17-41.53-16.74-31.14,11.7-29.82,17.36,26.09,9.53,30.39,8.86,11.26.12,14.09,2.55,25.29,3.34,28.03-3.23-1.17-8.81-1.17-8.81Z" fill="#ffb27d"/>
        <path id="Path_2275" data-name="Path 2275" d="M2447.49,871.71s48.47,9.46,67.33,25.07c19.27,15.94,89.97,110.2,85.5,142.87-4.53,33.15-83.15,84.44-83.15,84.44s-15.43,5.13-15.98-19.45c0,0,41.48-61.31,39.29-68.41-1.37-4.46-62.5-53.5-62.5-53.5l-30.49-111.01Z" fill="#aec3ff"/>
        <path id="Path_2276" data-name="Path 2276" d="M2342.61,1133.83a33.312,33.312,0,0,0,9.47,22.05l9.1,9.31a5.6,5.6,0,0,0,8.22-.23l12.63-14.42a20.027,20.027,0,0,0,4.93-14.03c-.51-11.44-1.43-33.47-1.98-54.71-.45-17.21-.66-33.93-.21-44.06,1.43-32.36,13.24-135.19,13.24-135.19h-7.78s-21.35,39.04-34.29,93a361.866,361.866,0,0,0-7.58,42.19s-7.12,58.71-5.76,96.09Z" fill="#1c468a"/>
        <path id="Path_2277" data-name="Path 2277" d="M2408.83,894.51l-21.61-5.18s-2.82.25-2.75,3.77,6.09,13.8,8.75,14.63,20.72-6.09,15.61-13.21Z" fill="#1c468a"/>
        <path id="Path_2278" data-name="Path 2278" d="M2456.4,872.65c.17-3.37-16.08-8.75-16.08-8.75s-12.22,27.38-42.3,27.81c0,0,8.57,16.68,18.67,21,0,0,38.71-20.07,39.7-40.07Z" fill="#91b0f2"/>
        <path id="Path_2279" data-name="Path 2279" d="M2398.02,891.71s-10.11-15.84-10.16-26.08c0,0-11.68,3.28-20.62,10.09,0,0,1.24,19.69,8.95,29.58,0,0,9.94-8.91,21.84-13.59Z" fill="#91b0f2"/>
        <path id="Path_2280" data-name="Path 2280" d="M2473.06,798.4c-9.3,31.26-30.79,35.62-30.79,35.62s1.83-3.65,2.83-13.12a13.017,13.017,0,0,0-.7-4.61,19.865,19.865,0,0,1,.26-12.2c.92-2.69.9-5.27-1.33-6.54-3.58-2.04-7.92,1.69-10.63,4.71a6.764,6.764,0,0,1-7.12,1.93c-.02,0-.03-.01-.05-.02-10.54-3.5-.94-27.45-12.45-26.95-38.05,1.66-41.44-4.26-47.62-10.6-4.46-4.58-2.6-20.23,3.56-21.93a115.951,115.951,0,0,0,25.56-10.1c28.73-15.85,53.93-.03,53.84.06,25.05,9.89,31,42.4,24.64,63.76Z" fill="#2a4e96"/>
      </g>
      <g id="Group_2957" data-name="Group 2957">
        <circle id="Ellipse_2" data-name="Ellipse 2" cx="301.66" cy="301.66" r="301.66" transform="translate(734.585 1180.65) rotate(-45)" fill="#e56335"/>
        <circle id="Ellipse_3" data-name="Ellipse 3" cx="301.66" cy="301.66" r="301.66" transform="translate(735 1148.614) rotate(-45)" fill="#f77d48"/>
        <path id="Path_2284" data-name="Path 2284" d="M1304.88,1358.17a1.759,1.759,0,0,1-1.02-3.19,252.059,252.059,0,0,0,106.42-205.91,1.75,1.75,0,0,1,3.5,0,255.572,255.572,0,0,1-107.89,208.78,1.728,1.728,0,0,1-1.01.32Z" fill="#fff"/>
        <path id="Path_2285" data-name="Path 2285" d="M1157.9,1404.96A255.911,255.911,0,0,1,952.88,995.92a258.24,258.24,0,0,1,88.55-74.75,253.066,253.066,0,0,1,116.46-27.98,256.086,256.086,0,0,1,192.01,86.74,1.757,1.757,0,0,1-2.64,2.32,252.574,252.574,0,0,0-189.38-85.55,249.67,249.67,0,0,0-114.87,27.59,254.819,254.819,0,0,0-87.34,73.73,252.394,252.394,0,0,0,202.21,403.43,1.75,1.75,0,0,1,0,3.5Z" fill="#fff"/>
        <text id="Accept" transform="translate(964 1188)" fill="#fff" font-size="115" font-family="Rubik-Medium, Rubik" font-weight="500"><tspan x="0" y="0">Accept</tspan></text>
      </g>
      <g id="Group_2959" data-name="Group 2959">
        <circle id="Ellipse_4" data-name="Ellipse 4" cx="301.66" cy="301.66" r="301.66" transform="translate(1487.581 1184.669) rotate(-45)" fill="#6385db"/>
        <circle id="Ellipse_5" data-name="Ellipse 5" cx="301.66" cy="301.66" r="301.66" transform="translate(1488 1152.614) rotate(-45)" fill="#739af0"/>
        <path id="Path_2286" data-name="Path 2286" d="M2061.17,1362.19a1.759,1.759,0,0,1-1.02-3.19,252.059,252.059,0,0,0,106.42-205.91,1.75,1.75,0,0,1,3.5,0,255.535,255.535,0,0,1-107.89,208.77,1.728,1.728,0,0,1-1.01.32Z" fill="#fff"/>
        <path id="Path_2287" data-name="Path 2287" d="M1660.06,1154.85a1.752,1.752,0,0,1-1.75-1.75,253.74,253.74,0,0,1,50.87-153.15,258.239,258.239,0,0,1,88.55-74.75,253.077,253.077,0,0,1,116.47-27.98,256.085,256.085,0,0,1,192.01,86.74,1.757,1.757,0,1,1-2.64,2.32,252.574,252.574,0,0,0-189.38-85.55,249.67,249.67,0,0,0-114.87,27.59,254.818,254.818,0,0,0-87.34,73.73,250.275,250.275,0,0,0-50.17,151.05A1.752,1.752,0,0,1,1660.06,1154.85Z" fill="#fff"/>
      </g>
      <g id="Group_2960" data-name="Group 2960">
        <path id="Path_2290" data-name="Path 2290" d="M1615.74,973.97h0a15.18,15.18,0,0,1-2.25,5.74c-.4.6-.83,1.21-1.3,1.82l-.01.02c-4.57,5.86-12.82,11.55-26.34,5.79-38.32-16.33-70.25-111-70.25-111l-100.9-178.41h-.01l-82.94-69.64c.02.09.03.19.05.27.91,5.56,15.62,94.68,24.36,108.52,9.01,14.3,69.38,81.53,67.73,103.96-1.68,22.72-16.23,28.56-16.72,28.75h-.01l-1.07-.82c-3.75-2.9-17.02-13.17-33.61-26.2-.12-.08-.23-.18-.36-.27l-.03-.02c-1.14-.89-2.29-1.81-3.46-2.73l-.46-.37h-.01c-26.61-20.96-59.91-47.59-76.33-62.35a85.17,85.17,0,0,1-9.31-9.23c-4.09-5.41-20.44-30.82-39.17-60.94-.03-.05-.06-.11-.1-.17-1.41-2.26-2.83-4.55-4.25-6.85q-1.26-2.04-2.53-4.08-3.045-4.92-6.13-9.94-3.585-5.85-7.16-11.71c-.02-.04-.05-.08-.07-.13q-2.115-3.5-4.23-6.96-1.455-2.415-2.9-4.81-1.38-2.28-2.74-4.54a.338.338,0,0,1-.06-.12c-1.37-2.27-2.73-4.54-4.06-6.78-6.88-11.52-13.23-22.39-18.55-31.78-.63-1.14-1.25-2.24-1.86-3.33q-2.01-3.57-3.75-6.78c-.58-1.05-1.13-2.08-1.66-3.07-2.16-4.03-3.95-7.54-5.29-10.38-.27-.58-.53-1.12-.76-1.63a29,29,0,0,1-1.96-5.31c-9.79-51.13,1.9-151.63,1.9-151.63h.01l33.87-39.94,38.83-45.78,102.52-120.86c7.21.67,14.38,1.52,21.51,2.51,4.46,4.92,10,11.02,16.39,18.1q3.645,4.02,7.64,8.44c65.32,72.31,196.98,219.41,207.55,241.76,2.46,5.21,3.6,12.38,3.81,20.69h0c.02.97.03,1.94.03,2.92,0,38.9-18.25,99.69-17.74,108.25a1.209,1.209,0,0,0,.01.19c0,.02.01.04.01.06v.05a.058.058,0,0,0,.01.04c1.03,6.77,3.8,57.26,5.03,80.64a31.977,31.977,0,0,1-6.59,21.17l-29.39,38.15s27.19,76.53,33.85,102.04c2.96,11.4,20.88,92.06,20.88,92.06a14.913,14.913,0,0,1,.35,6.6Z" fill="#ffb27d"/>
        <path id="Path_2291" data-name="Path 2291" d="M1560.66,773.28s-27.07-80.94-25.79-87.57,12.52-27.15,20.24-24.1S1560.66,773.28,1560.66,773.28Z" fill="#efa26f"/>
        <path id="Path_2292" data-name="Path 2292" d="M1609.28,521.8c-.23.51-13.79,29.99-20.26,42.38-6.38,12.2,2.19,66.5,2.59,69.03-.94-7.74,18.66-72.32,17.68-111.41Z" fill="#efa26f"/>
        <path id="Path_2293" data-name="Path 2293" d="M1331.73,628.29l82.94,69.64s-16.42-47.38-33.23-64.06S1327.23,602.31,1331.73,628.29Z" fill="#efa26f"/>
        <path id="Path_2294" data-name="Path 2294" d="M1576.06,955.31c2.52,7.03,7.15,19.71,10.67,25.69,1,1.69,3.88,4.01,8.37,4.8a21.529,21.529,0,0,0,9.71-.66,22.114,22.114,0,0,0,5-1.99,18.53,18.53,0,0,0,4.76-3.93,6.425,6.425,0,0,0,1.02-5.9v-.03a187.825,187.825,0,0,0-8.93-25.72c-2.53-5.6-7.97-9.07-12.61-7.9l-2.18.53-11.14,2.75c-4.62,1.15-6.73,6.63-4.66,12.36Z" fill="#ffd3b6"/>
        <path id="Path_2295" data-name="Path 2295" d="M1576.06,955.31c2.52,7.03,7.15,19.71,10.67,25.69,1,1.69,3.88,4.01,8.37,4.8.77-.14,1.56-.33,2.38-.56a22.114,22.114,0,0,0,5-1.99,18.53,18.53,0,0,0,4.76-3.93,6.425,6.425,0,0,0,1.02-5.9v-.03a187.825,187.825,0,0,0-8.93-25.72,14.251,14.251,0,0,0-7.46-7.48l-11.14,2.75c-4.62,1.15-6.73,6.63-4.66,12.36Z" fill="#ffc197"/>
        <path id="Path_2296" data-name="Path 2296" d="M1302.9,358.66l-91.87,38.27-33.88,39.94s-11.68,100.49-1.89,151.63c1.88,9.77,38.04,70.12,68.05,118.36h.02c-3.98-6.39-52.66-111.57-52.77-129.98s-5.94-119.45,7.68-134.57c13.5-15.01,103.27-82.59,104.67-83.65Z" fill="#efa26f"/>
        <path id="Path_2297" data-name="Path 2297" d="M1398.09,259.79c-9.7,30.48-50.92,66.96-95.19,98.87-.08.06-.17.13-.26.2-.01,0-.01.01-.02.02-59.52,42.88-124.44,77.44-125.45,77.98h-.01l-27.38-30.29-96.61-106.89a425.28,425.28,0,0,1,38.9-20.96c90.77-43.23,178.07-56.18,260.33-48.43,7.21.67,14.38,1.52,21.51,2.51,4.95.68,9.86,1.44,14.77,2.28l4.99,13.07h0l4.27,11.19.17.45Z" fill="#d2e3fc"/>
        <path id="Path_2298" data-name="Path 2298" d="M1372.45,842.78s0-.01.02-.01c4.82-2.77,10.5-7.57,8.23-14.12-3.53-10.21-79.37-46.97-88.9-51.61Z" fill="#efa26f"/>
        <path id="Path_2299" data-name="Path 2299" d="M1407.13,869.81l-39-30.43s5.39-9.05,12.57-10.74,38.01,28.28,26.43,41.16Z" fill="#ffc197"/>
      </g>
      <g id="Group_2964" data-name="Group 2964">
        <g id="Group_2961" data-name="Group 2961">
          <path id="Path_2300" data-name="Path 2300" d="M1416.33,1517.66c12.84,5.2,58.7.99,60.19-2.67s-28.51-38.61-41.35-43.82a25.077,25.077,0,0,0-18.84,46.48Z" fill="#a8d29f"/>
          <path id="Path_2301" data-name="Path 2301" d="M1532.02,1539.55c-7.21,11.83-10.46,57.77-7.08,59.83s42.71-21.9,49.92-33.73a25.075,25.075,0,1,0-42.83-26.09Z" fill="#a8d29f"/>
          <path id="Path_2302" data-name="Path 2302" d="M1470.21,1629.46c13.2,4.21,58.61-3.47,59.81-7.24s-31.37-36.33-44.56-40.54a25.076,25.076,0,1,0-15.24,47.78Z" fill="#a8d29f"/>
          <path id="Path_2303" data-name="Path 2303" d="M1537.01,1673.92c-.04-1.04-5.12-105.02-62.05-158.71l1.21-1.28c57.46,54.18,62.56,158.86,62.6,159.92l-1.76.08Z" fill="#a8d29f"/>
        </g>
        <g id="Group_2962" data-name="Group 2962">
          <path id="Path_2304" data-name="Path 2304" d="M1727.05,1519.9c-8,5.31-39.72,8.8-41.23,6.52s14.01-30.16,22.01-35.47a17.379,17.379,0,1,1,19.22,28.96Z" fill="#a8d29f"/>
          <path id="Path_2305" data-name="Path 2305" d="M1651.52,1550.77c6.53,7.03,15.1,37.77,13.09,39.64s-32.03-8.96-38.56-15.99a17.379,17.379,0,0,1,25.47-23.65Z" fill="#a8d29f"/>
          <path id="Path_2306" data-name="Path 2306" d="M1705.93,1603.26c-8.38,4.68-40.27,5.75-41.61,3.36s16.27-29.01,24.64-33.69a17.377,17.377,0,1,1,16.97,30.33Z" fill="#a8d29f"/>
          <path id="Path_2307" data-name="Path 2307" d="M1666.73,1642.69c-.11-.71-11.06-72.01,20.17-116.34l-1-.7c-31.51,44.74-20.49,116.52-20.37,117.24l1.21-.19Z" fill="#a8d29f"/>
        </g>
        <g id="Group_2963" data-name="Group 2963">
          <path id="Path_2308" data-name="Path 2308" d="M1610.37,1667.86l-3.62-.58c-14.27-184.58-70.63-317.04-71.42-318.84l3.3-1.42c.79,1.82,57.56,135.15,71.75,320.84Z" fill="#a8d29f"/>
          <path id="Path_2309" data-name="Path 2309" d="M1497.08,1329.86c6.95,7.87,39.5,20.54,41.75,18.56s-6.28-35.85-13.23-43.73a19.015,19.015,0,1,0-28.51,25.17Z" fill="#fff"/>
          <path id="Path_2310" data-name="Path 2310" d="M1546.96,1302.41c-6.28,8.42-11.98,42.88-9.57,44.67s33.79-13.52,40.07-21.94a19.015,19.015,0,0,0-30.49-22.73Z" fill="#fff"/>
          <path id="Path_2311" data-name="Path 2311" d="M1584.4,1339.05c-10.13-2.76-44.29,4.53-45.08,7.43s24.94,26.51,35.08,29.27a19.019,19.019,0,0,0,10-36.7Z" fill="#fff"/>
          <path id="Path_2312" data-name="Path 2312" d="M1561.33,1384.73c-1.01-10.45-19.94-39.81-22.93-39.52s-15.94,32.72-14.93,43.18a19.018,19.018,0,1,0,37.86-3.66Z" fill="#fff"/>
          <path id="Path_2313" data-name="Path 2313" d="M1509.52,1382.48c9.3-4.88,29.33-33.49,27.94-36.15s-36.32-2.41-45.62,2.47a19.019,19.019,0,0,0,17.68,33.68Z" fill="#fff"/>
          <path id="Path_2314" data-name="Path 2314" d="M1531.27,1345.35a6.263,6.263,0,1,1,5.2,7.17A6.258,6.258,0,0,1,1531.27,1345.35Z" fill="#f77d48"/>
          <path id="Path_2315" data-name="Path 2315" d="M1609.33,1479.14c-10.33,12.71-21.49,66.02-17.86,68.97s53.55-18.84,63.88-31.55a29.657,29.657,0,1,0-46.02-37.42Z" fill="#a8d29f"/>
        </g>
        <path id="Path_2316" data-name="Path 2316" d="M1318.84,1514.32c.73,1.1,33.78,56.96,64.81,146.78-1.28-.37-2.37-.55-3.65-.91-30.67-88.36-62.98-143.13-63.72-144.23l2.55-1.64Z" fill="#a8d29f"/>
        <path id="Path_2317" data-name="Path 2317" d="M1280.78,1504.12c6.96,6.05,36.75,13.33,38.48,11.35s-9.6-30.49-16.55-36.54a16.7,16.7,0,0,0-21.93,25.19Z" fill="#fff"/>
        <path id="Path_2318" data-name="Path 2318" d="M1321.04,1474.48c-4.49,8.05-5.49,38.71-3.19,39.99s27.86-15.66,32.36-23.72a16.7,16.7,0,1,0-29.17-16.27Z" fill="#fff"/>
        <path id="Path_2319" data-name="Path 2319" d="M1357.86,1502.07c-9.14-1.24-38.03,9.05-38.39,11.66s24.77,20.2,33.91,21.44a16.7,16.7,0,0,0,4.48-33.1Z" fill="#fff"/>
        <path id="Path_2320" data-name="Path 2320" d="M1343.03,1544.49c-2.08-8.98-21.94-32.36-24.51-31.76s-10.11,30.32-8.03,39.31a16.7,16.7,0,0,0,32.54-7.54Z" fill="#fff"/>
        <path id="Path_2321" data-name="Path 2321" d="M1297.67,1548.5c7.53-5.32,21.68-32.54,20.16-34.69s-31.89,2.08-39.43,7.4a16.7,16.7,0,0,0,19.27,27.29Z" fill="#fff"/>
        <path id="Path_2322" data-name="Path 2322" d="M1312.33,1513.67a5.5,5.5,0,1,1,5.35,5.64A5.5,5.5,0,0,1,1312.33,1513.67Z" fill="#f77d48"/>
        <path id="Path_2323" data-name="Path 2323" d="M1374.16,1574.52c-5.8,9.43-8.55,46.14-5.85,47.8s34.21-17.37,40.01-26.8a20.049,20.049,0,1,0-34.16-21Z" fill="#a8d29f"/>
        <path id="Path_2324" data-name="Path 2324" d="M1796.37,1670.71l3.23-.51c12.71-164.39,62.9-282.35,63.61-283.96l-2.94-1.27C1859.57,1386.59,1809.01,1505.33,1796.37,1670.71Z" fill="#a8d29f"/>
        <path id="Path_2325" data-name="Path 2325" d="M1897.25,1369.7c-6.19,7.01-35.18,18.29-37.18,16.53s5.59-31.93,11.78-38.94a16.94,16.94,0,0,1,25.4,22.42Z" fill="#fff"/>
        <path id="Path_2326" data-name="Path 2326" d="M1852.83,1345.25c5.59,7.5,10.67,38.19,8.53,39.78s-30.1-12.04-35.69-19.54a16.936,16.936,0,1,1,27.16-20.24Z" fill="#fff"/>
        <path id="Path_2327" data-name="Path 2327" d="M1819.49,1377.88c9.03-2.46,39.44,4.04,40.15,6.61s-22.21,23.61-31.24,26.07a16.935,16.935,0,1,1-8.9-32.68Z" fill="#fff"/>
        <path id="Path_2328" data-name="Path 2328" d="M1840.04,1418.56c.9-9.31,17.76-35.45,20.42-35.19s14.2,29.14,13.3,38.45a16.939,16.939,0,1,1-33.72-3.26Z" fill="#fff"/>
        <path id="Path_2329" data-name="Path 2329" d="M1886.18,1416.56c-8.28-4.35-26.12-29.83-24.88-32.19s32.35-2.15,40.63,2.2a16.937,16.937,0,1,1-15.75,29.99Z" fill="#fff"/>
        <path id="Path_2330" data-name="Path 2330" d="M1866.81,1383.49a5.58,5.58,0,1,0-4.63,6.39A5.572,5.572,0,0,0,1866.81,1383.49Z" fill="#f77d48"/>
        <path id="Path_2331" data-name="Path 2331" d="M1788.88,1546.66c9.2,11.32,19.14,58.8,15.91,61.43s-47.69-16.78-56.89-28.1a26.415,26.415,0,1,1,40.99-33.33Z" fill="#a8d29f"/>
        <path id="Path_2332" data-name="Path 2332" d="M1274.87,1699.44s18.23-47.94,84.44-50.95,111.79,36.11,166.5,18.06,145.23-58.83,230.88-31.67,100.09,64.56,100.09,64.56H1274.87Z" fill="#a8d29f"/>
      </g>
      <path id="Path_2333" data-name="Path 2333" d="M857.12,1698.33H981.49c6.66-5.65-4.61-18.49-16.39-19.35-5.12-.39-11.59.68-18.98,2.25-1.71-22.73-11.49-124.92-48.32-120.82-41.42,4.6,0,45,11.71,68.93,8.67,17.72,17.82,43.13,22,55.12-3.36.73-6.84,1.44-10.4,2.1-5.49-16.86-25.92-73.55-51.89-70.25-30.5,3.87-18.24,26.6,3.38,40.09,15.86,9.92,35.33,24.03,44.59,30.84a132.359,132.359,0,0,1-24.32,1.95c-21.3-.51-31.7,5.77-35.73,9.15Z" fill="#a8d29f"/>
      <path id="Path_2334" data-name="Path 2334" d="M2663.03,1697.94h-93.71c-5.02-4.26,3.47-13.93,12.35-14.58,3.86-.29,8.73.52,14.3,1.69,1.29-17.13,8.65-94.13,36.41-91.03,31.21,3.46,0,33.91-8.82,51.93-6.54,13.35-13.43,32.5-16.58,41.53,2.53.55,5.16,1.09,7.84,1.58,4.14-12.7,19.53-55.42,39.1-52.93,22.98,2.91,13.74,20.04-2.54,30.21-11.95,7.48-26.62,18.1-33.59,23.24a100.443,100.443,0,0,0,18.33,1.47c16.05-.38,23.89,4.35,26.93,6.89Z" fill="#a8d29f"/>
      <g id="Group_2965" data-name="Group 2965">
        <path id="Path_2335" data-name="Path 2335" d="M524.42,1006.03c-3.29-6.35,71.8-29.2,72.99,33.44,0,0,140.66-3.46,73.5-81.86-23.25-27.14-20.86-49.58-20.16-70.47s-14.48-81.61-66.55-75.5c0,0-13.63-5.55-30.65,3.28-38.7,20.08-125.38,214.22-29.13,191.12Z" fill="#163560"/>
        <path id="Path_2336" data-name="Path 2336" d="M754.38,1066.03s9.16-13.94,16.54-14.21,21.04-4.1,19.95-1.37-9.57,3.01-10.39,4.65,12.57,4.1,16.4,4.37,12.85,0,12.57,1.91-16.26,9.84-27.53,8.75-25.22,3.28-25.22,3.28l-2.32-7.38Z" fill="#ffb27d"/>
        <path id="Path_2337" data-name="Path 2337" d="M621.97,1070.54a137.484,137.484,0,0,0,14,21.18c10.88,13.63,27.66,29.37,48.72,32.48,10.06,1.48,19.9-.68,28.94-4.7h.03c25.58-11.36,44.82-37.47,44.82-37.47,4.51-12.3-2.87-20.64-2.87-20.64s-51.66,11.62-56.57,9.16-33.62-85.13-40.45-95.52-30.12-15.78-30.12-15.78l-6.5,111.3Z" fill="#23569e"/>
        <path id="Path_2338" data-name="Path 2338" d="M635.97,1091.72c10.88,13.63,27.66,29.37,48.72,32.48,10.06,1.48,19.9-.68,28.94-4.7-1,.13-26.55,3.29-36.73-14.93-10.39-18.59-21.62-48.11-37.05-38.27C633.19,1070.55,633.49,1081.1,635.97,1091.72Z" fill="#163560"/>
        <path id="Path_2339" data-name="Path 2339" d="M429.25,1628.13s-15.76,14.38-12.69,24.61,17.3,17.03,19.22,29.53,9.61,19.31,16.53,19.31H485.3s5.09-8.79-7.21-11.44-16.94-17.33-16.17-30.96-1.15-31.8-1.15-31.8l-26.14-6.06-5.38,6.81Z" fill="#294a7f"/>
        <path id="Path_2340" data-name="Path 2340" d="M562.66,1634.24s-5.67,60.94,1.25,64.34l88.56-.18s0-10.22-14.22-12.49-39.21-10.6-43.44-29.15-32.14-22.52-32.14-22.52Z" fill="#294a7f"/>
        <path id="Path_2341" data-name="Path 2341" d="M494.54,1029.44a352.628,352.628,0,0,0,0,40.93c.88,14.8,15.85,34.62,17.97,39.53,5.33,12.3,11.34,14.3,11.34,14.3l46.5,11.4,16.35,4,51.56-15.4s23.48-65.55,14.05-102.44-23.83-62.52-23.83-62.52-39.58-8.23-96.85-3.49l-37.08,73.7Z" fill="#23569e"/>
        <path id="Path_2342" data-name="Path 2342" d="M634.97,1134.15s25.53,79.47,27.17,106.53-48.81,384.38-50.83,396.84c-1.91,11.75-16.51,19.24-16.51,19.24s-6.71,3.96-16.29,1.25c-13.29-3.75-17.49-8.25-17.49-8.25s-19.87-254.84-7.57-345.87a1440.834,1440.834,0,0,0,12.44-169.75h69.08Z" fill="#ed7d2b"/>
        <path id="Path_2343" data-name="Path 2343" d="M526.8,1131.78s-38.95,52.26-42.58,87.58-5.7,159.41-13.43,193.84-36.16,100.71-36.16,208.12c0,0,2.95,6.16,12.08,9.44a99.571,99.571,0,0,0,10.62,2.94,16.7,16.7,0,0,0,18.67-8.86c19.21-38.69,80.42-163.46,83.56-189.36,2.22-18.33,21.55-139.64,63.7-210.82,10.12-17.09-6.21-85.05-6.21-85.05l-90.25-7.82Z" fill="#f99746"/>
        <path id="Path_2344" data-name="Path 2344" d="M639.05,1121.88s-10.25,8.11-30.61,8.52c-24.32.49-84.59-6.2-84.59-6.2a49.777,49.777,0,0,0-2.57,15.38s73.61,18.57,116.25,2.71C637.53,1142.29,643.03,1131.94,639.05,1121.88Z" fill="#233862"/>
        <path id="Path_2345" data-name="Path 2345" d="M603.18,1138.79c0-6.93,4.98-12.56,11.1-12.56s11.1,5.63,11.1,12.56-4.98,12.56-11.1,12.56S603.18,1145.72,603.18,1138.79Zm3.67,0c0,4.9,3.33,8.88,7.42,8.88s7.42-3.98,7.42-8.88-3.33-8.88-7.42-8.88S606.85,1133.89,606.85,1138.79Z" fill="#fff"/>
        <rect id="Rectangle_1658" data-name="Rectangle 1658" width="99.99" height="136.88" transform="translate(520.065 1201.921) rotate(-138.95)" fill="#6385db"/>
        <path id="Path_2346" data-name="Path 2346" d="M540.86,1136.49s27.63,3.23,27.54,9.79-6.89,20.03-10.3,20.63-22.49-18.22-22.49-18.22l5.24-12.2Z" fill="#ffb27d"/>
        <path id="Path_2347" data-name="Path 2347" d="M531.62,955.74s-36.89,2.59-51.03,36.96-40.97,92.09-40.97,101.8,14.99,39.64,95.47,56.85c0,0,8.33-8.76,7.82-15.68,0,0-50.24-43.15-50.11-48.2.26-9.54,8.24-22.13,52.35-66.26,11.99-12-13.54-65.47-13.54-65.47Z" fill="#23569e"/>
        <path id="Path_2348" data-name="Path 2348" d="M555.25,959.77c3.1-8.69,7.04-31.42,6.98-47.5l2.33.46,39.25,7.77s-.89,12.35-.92,23.99v.29c-.05,10.11.04,18.24-1.02,20.99-3.73,9.7-49.2,1.21-46.63-6Z" fill="#ffb27d"/>
        <path id="Path_2349" data-name="Path 2349" d="M603.82,920.5s-.89,12.35-.92,23.99c-21.96-.62-33.57-20.66-38.33-31.76Z" fill="#e8945b"/>
        <path id="Path_2350" data-name="Path 2350" d="M611.16,931.52s-51.97.86-52-31.51-6.77-54.06,26.41-55.98,39.64,10.43,42.28,21.23S624.68,930.46,611.16,931.52Z" fill="#ffb27d"/>
        <path id="Path_2351" data-name="Path 2351" d="M609.23,843.24S595,881.22,573.17,886.83s-31.31-.24-31.31-.24,16.75-13.31,20.23-36.53c0,0,36.42-24.9,47.15-6.83Z" fill="#163560"/>
        <path id="Path_2352" data-name="Path 2352" d="M605.71,846.32s10.55,3.94,14.89,11.64a52.3,52.3,0,0,1,7.02,29.72s10.72-25.81-1.33-40.42c-12.77-15.48-20.59-.94-20.59-.94Z" fill="#163560"/>
        <path id="Path_2353" data-name="Path 2353" d="M601,912.31s.9,3.81,10.39,3.23c0,0,7.97-.49,7.72-4.69C619.11,910.85,611.38,907.87,601,912.31Z" fill="#fff"/>
      </g>
      <g id="Group_2966" data-name="Group 2966" opacity="0.7">
        <path id="Path_2354" data-name="Path 2354" d="M962.13,705.61V691.87c0-27.55,9.72-44.53,29.13-68.42,10.54-13.35,13.77-21.85,13.77-35.63,0-11.34-2.43-14.96-8.5-14.96-7.68,0-8.9,10.12-8.9,28.74H917.2c.79-42.09,17.79-79.33,85.4-79.33,62.32,0,82.16,32.36,82.16,70.43,0,29.53-10.11,40.87-27.12,63.54-14.96,21.03-18.19,29.96-18.19,42.48v6.89H962.13Zm0,94.72V719.78h77.32v80.55H962.13Z" fill="#aec3ff"/>
      </g>
      <path id="Path_2355" data-name="Path 2355" d="M1741.31,648.2V633.98c0-28.51,10.06-46.08,30.15-70.81,10.91-13.81,14.25-22.62,14.25-36.87,0-11.73-2.52-15.49-8.8-15.49-7.95,0-9.21,10.47-9.21,29.74h-72.89c.81-43.56,18.42-82.1,88.38-82.1,64.5,0,85.03,33.49,85.03,72.89,0,30.56-10.47,42.3-28.07,65.76-15.49,21.76-18.83,31-18.83,43.96v7.13H1741.3Zm0,98.03V662.87h80.02v83.36Z" fill="#f77d48"/>
      <path id="Path_2356" data-name="Path 2356" d="M1915.57,757.93v-6.41c0-12.85,4.53-20.76,13.59-31.91,4.92-6.23,6.42-10.19,6.42-16.61,0-5.29-1.14-6.98-3.96-6.98-3.58,0-4.15,4.72-4.15,13.4h-32.84c.37-19.63,8.3-36.99,39.82-36.99,29.06,0,38.31,15.09,38.31,32.84,0,13.77-4.72,19.06-12.65,29.63-6.98,9.81-8.48,13.97-8.48,19.81v3.21h-36.06Zm0,44.17V764.54h36.06V802.1Z" fill="#aec3ff"/>
      <path id="Path_2357" data-name="Path 2357" d="M1388.66,235.08c-4.91-.84-9.82-1.6-14.77-2.28q-10.7-1.485-21.51-2.51c-82.26-7.75-169.55,5.2-260.33,48.43a425.287,425.287,0,0,0-38.9,20.96q-14.88,9.09-27.46,18.62l100.49,98.47c7.78-3.13,15.66-6.55,23.58-10.2,33.51-15.44,67.99-35.17,100.09-55.42,68.54-43.22,126.2-88.82,140.42-100.26,2.21-1.78,3.37-2.74,3.37-2.74h0l-4.99-13.08Z" fill="#1c468a"/>
      <path id="Path_2358" data-name="Path 2358" d="M1123.36,358.66a14.67,14.67,0,1,1,14.67,14.67A14.673,14.673,0,0,1,1123.36,358.66Z" fill="#14386d"/>
      <rect id="Rectangle_1659" data-name="Rectangle 1659" width="2639.32" height="7" rx="2.99" transform="translate(161.58 1697.97)" fill="#233862"/>
      <g id="Group_2971" data-name="Group 2971">
        <g id="Group_2968" data-name="Group 2968">
          <path id="Path_2359" data-name="Path 2359" d="M2055.8,1686.82l-2.3-.37c-9.07-117.38-44.92-201.61-45.42-202.75l2.1-.91c.5,1.16,36.6,85.94,45.62,204.02Z" fill="#a8d29f"/>
          <g id="Group_2967" data-name="Group 2967">
            <path id="Path_2360" data-name="Path 2360" d="M1983.76,1471.88c4.42,5.01,25.12,13.06,26.55,11.8s-3.99-22.8-8.41-27.81a12.094,12.094,0,0,0-18.13,16.01Z" fill="#fff"/>
            <path id="Path_2361" data-name="Path 2361" d="M2015.48,1454.43c-3.99,5.36-7.62,27.27-6.09,28.41s21.49-8.6,25.48-13.95a12.091,12.091,0,1,0-19.39-14.45Z" fill="#fff"/>
            <path id="Path_2362" data-name="Path 2362" d="M2039.29,1477.73c-6.44-1.76-28.16,2.88-28.66,4.72s15.86,16.86,22.31,18.61a12.1,12.1,0,1,0,6.36-23.34Z" fill="#fff"/>
            <path id="Path_2363" data-name="Path 2363" d="M2024.61,1506.78c-.64-6.65-12.68-25.31-14.58-25.13s-10.14,20.81-9.5,27.46a12.091,12.091,0,0,0,24.07-2.33Z" fill="#fff"/>
            <path id="Path_2364" data-name="Path 2364" d="M1991.67,1505.35c5.91-3.1,18.65-21.3,17.77-22.99s-23.1-1.53-29.01,1.57a12.095,12.095,0,1,0,11.24,21.42Z" fill="#fff"/>
            <path id="Path_2365" data-name="Path 2365" d="M2005.5,1481.73a3.984,3.984,0,1,1,3.31,4.56A3.995,3.995,0,0,1,2005.5,1481.73Z" fill="#f78248"/>
          </g>
          <path id="Path_2366" data-name="Path 2366" d="M2044.95,1516.25c-6.57,8.08-13.67,41.99-11.36,43.86s34.05-11.98,40.62-20.06a18.859,18.859,0,0,0-29.26-23.8Z" fill="#a8d29f"/>
          <path id="Path_2367" data-name="Path 2367" d="M2028.79,1613.62c6.82,3.33,21.91,23.57,20.96,25.52s-26.19,2.52-33.01-.8a13.746,13.746,0,1,1,12.05-24.71Z" fill="#a8d29f"/>
        </g>
        <g id="Group_2970" data-name="Group 2970">
          <path id="Path_2368" data-name="Path 2368" d="M2121.57,1686.82l2.64-.42c10.42-134.76,51.57-231.47,52.15-232.78l-2.41-1.04c-.58,1.33-42.03,98.67-52.38,234.25Z" fill="#a8d29f"/>
          <g id="Group_2969" data-name="Group 2969">
            <path id="Path_2369" data-name="Path 2369" d="M2204.28,1440.05c-5.07,5.75-28.84,15-30.48,13.55s4.59-26.18,9.66-31.93a13.886,13.886,0,0,1,20.82,18.38Z" fill="#fff"/>
            <path id="Path_2370" data-name="Path 2370" d="M2167.86,1420.01c4.58,6.15,8.75,31.31,6.99,32.61s-24.67-9.87-29.26-16.02a13.885,13.885,0,0,1,22.27-16.59Z" fill="#fff"/>
            <path id="Path_2371" data-name="Path 2371" d="M2140.53,1446.76c7.4-2.02,32.34,3.31,32.91,5.42s-18.21,19.35-25.61,21.37a13.888,13.888,0,0,1-7.3-26.8Z" fill="#fff"/>
            <path id="Path_2372" data-name="Path 2372" d="M2157.38,1480.11c.74-7.63,14.56-29.06,16.74-28.85s11.64,23.89,10.9,31.52a13.885,13.885,0,1,1-27.64-2.68Z" fill="#fff"/>
            <path id="Path_2373" data-name="Path 2373" d="M2195.2,1478.47c-6.79-3.56-21.41-24.45-20.4-26.39s26.52-1.76,33.31,1.8a13.886,13.886,0,1,1-12.91,24.59Z" fill="#fff"/>
            <path id="Path_2374" data-name="Path 2374" d="M2179.32,1451.36a4,4,0,1,1-.01,0Z" fill="#f78248"/>
          </g>
          <path id="Path_2375" data-name="Path 2375" d="M2122.33,1549.03c7.54,9.28,15.69,48.2,13.04,50.36s-39.1-13.76-46.64-23.03a21.653,21.653,0,1,1,33.6-27.32Z" fill="#a8d29f"/>
          <path id="Path_2376" data-name="Path 2376" d="M2152.58,1602.78c-7.84,3.82-25.16,27.06-24.07,29.3s30.07,2.9,37.9-.92a15.781,15.781,0,1,0-13.83-28.37Z" fill="#a8d29f"/>
        </g>
        <path id="Path_2377" data-name="Path 2377" d="M1996.94,1698.12s22.28-24.27,70.23-15.49,74.28-16.96,83.06,15.49Z" fill="#a8d29f"/>
      </g>
      <text id="Reject" transform="translate(1736 1192)" fill="#fff" font-size="115" font-family="Rubik-Medium, Rubik" font-weight="500"><tspan x="0" y="0">Reject</tspan></text>
    </g>
  </g>
</svg>
