<svg width="25" height="21" viewBox="0 0 25 21" fill="none" xmlns="http://www.w3.org/2000/svg">
<path d="M20 19.5H11V13.5H9.49999V19.5H5V13.5H3.5V19.5C3.5 19.8978 3.65803 20.2793 3.93934 20.5607C4.22064 20.842 4.60217 21 5 21H20C20.3978 21 20.7793 20.842 21.0606 20.5607C21.3419 20.2793 21.5 19.8978 21.5 19.5V13.5H20V19.5Z" fill="#6C6C6C"/>
<path d="M24.3425 6.95249L21.2825 0.832499C21.1583 0.58259 20.9669 0.372278 20.7297 0.225209C20.4925 0.0781411 20.2191 0.000148082 19.94 0H5.06001C4.78094 0.000148082 4.50746 0.0781411 4.27029 0.225209C4.03313 0.372278 3.84169 0.58259 3.71751 0.832499L0.657511 6.95249C0.553034 7.16211 0.499094 7.39328 0.500012 7.62749V9.93749C0.499327 10.288 0.62139 10.6276 0.845011 10.8975C1.17551 11.2763 1.58368 11.5796 2.04181 11.7867C2.49994 11.9937 2.99727 12.0997 3.50001 12.0975C4.32034 12.0988 5.11564 11.8151 5.75001 11.295C6.38436 11.8154 7.1795 12.0998 8 12.0998C8.82051 12.0998 9.61565 11.8154 10.25 11.295C10.8844 11.8154 11.6795 12.0998 12.5 12.0998C13.3205 12.0998 14.1156 11.8154 14.75 11.295C15.3844 11.8154 16.1795 12.0998 17 12.0998C17.8205 12.0998 18.6156 11.8154 19.25 11.295C19.9581 11.8764 20.8641 12.1606 21.7774 12.0879C22.6908 12.0152 23.5403 11.5911 24.1475 10.905C24.3738 10.6362 24.4986 10.2964 24.5 9.94499V7.62749C24.5009 7.39328 24.447 7.16211 24.3425 6.95249ZM21.5 10.5975C21.1796 10.5967 20.8641 10.5194 20.5797 10.372C20.2953 10.2246 20.0503 10.0113 19.865 9.74999L19.25 8.90999L18.6425 9.74999C18.4537 10.0073 18.207 10.2166 17.9223 10.3608C17.6376 10.505 17.3229 10.5802 17.0037 10.5802C16.6846 10.5802 16.3699 10.505 16.0852 10.3608C15.8005 10.2166 15.5538 10.0073 15.365 9.74999L14.75 8.90999L14.1425 9.74999C13.9537 10.0073 13.707 10.2166 13.4223 10.3608C13.1376 10.505 12.8229 10.5802 12.5037 10.5802C12.1846 10.5802 11.8699 10.505 11.5852 10.3608C11.3005 10.2166 11.0538 10.0073 10.865 9.74999L10.25 8.90999L9.6425 9.74999C9.45371 10.0073 9.20697 10.2166 8.92227 10.3608C8.63757 10.505 8.32291 10.5802 8.00375 10.5802C7.6846 10.5802 7.36994 10.505 7.08524 10.3608C6.80053 10.2166 6.5538 10.0073 6.36501 9.74999L5.75001 8.90999L5.13501 9.74999C4.94974 10.0113 4.70468 10.2246 4.42028 10.372C4.13587 10.5194 3.82035 10.5967 3.50001 10.5975C3.21736 10.6009 2.93725 10.5438 2.67852 10.43C2.41979 10.3161 2.18843 10.1482 2.00001 9.93749V7.62749L5.06001 1.5H19.94L23 7.61999V9.91499C22.8127 10.1287 22.5821 10.3 22.3235 10.4177C22.0648 10.5354 21.7841 10.5967 21.5 10.5975Z" fill="#6C6C6C"/>
</svg>
