<svg xmlns="http://www.w3.org/2000/svg" width="24" height="21" viewBox="0 0 24 21">
  <g id="store-en" transform="translate(-0.5)">
    <path id="Path_26" data-name="Path 26" d="M20,19.5H11v-6H9.5v6H5v-6H3.5v6A1.5,1.5,0,0,0,5,21H20a1.5,1.5,0,0,0,1.5-1.5v-6H20Z"/>
    <path id="Path_27" data-name="Path 27" d="M24.343,6.952,21.282.832A1.5,1.5,0,0,0,19.94,0H5.06A1.5,1.5,0,0,0,3.718.832L.658,6.952A1.5,1.5,0,0,0,.5,7.627v2.31a1.5,1.5,0,0,0,.345.96A3.5,3.5,0,0,0,3.5,12.1a3.54,3.54,0,0,0,2.25-.8,3.548,3.548,0,0,0,4.5,0,3.548,3.548,0,0,0,4.5,0,3.548,3.548,0,0,0,4.5,0,3.54,3.54,0,0,0,4.9-.39,1.5,1.5,0,0,0,.353-.96V7.627A1.5,1.5,0,0,0,24.343,6.952ZM21.5,10.6a2.01,2.01,0,0,1-1.635-.848l-.615-.84-.608.84a2.032,2.032,0,0,1-3.278,0l-.615-.84-.608.84a2.032,2.032,0,0,1-3.278,0l-.615-.84-.608.84a2.032,2.032,0,0,1-3.277,0L5.75,8.91l-.615.84A2.01,2.01,0,0,1,3.5,10.6,1.98,1.98,0,0,1,2,9.937V7.627L5.06,1.5H19.94L23,7.62v2.3a2,2,0,0,1-1.5.683Z"/>
  </g>
</svg>
