<svg width="14" height="18" viewBox="0 0 14 18" fill="none" xmlns="http://www.w3.org/2000/svg">
<path d="M5 13.2961H9C9.55 13.2961 10 12.8461 10 12.2961V7.29606H11.59C12.48 7.29606 12.93 6.21606 12.3 5.58606L7.71 0.996057C7.61749 0.903354 7.5076 0.829806 7.38662 0.779625C7.26565 0.729443 7.13597 0.703613 7.005 0.703613C6.87403 0.703613 6.74435 0.729443 6.62338 0.779625C6.5024 0.829806 6.39251 0.903354 6.3 0.996057L1.71 5.58606C1.08 6.21606 1.52 7.29606 2.41 7.29606H4V12.2961C4 12.8461 4.45 13.2961 5 13.2961ZM1 15.2961H13C13.55 15.2961 14 15.7461 14 16.2961C14 16.8461 13.55 17.2961 13 17.2961H1C0.45 17.2961 0 16.8461 0 16.2961C0 15.7461 0.45 15.2961 1 15.2961Z" fill="black"/>
</svg>
