<svg width="14" height="9" viewBox="0 0 14 9" fill="none" xmlns="http://www.w3.org/2000/svg">
<path d="M6.775 7.93C9.96453 7.93 12.55 4.465 12.55 4.465C12.55 4.465 9.96453 1 6.775 1C3.58547 1 1 4.465 1 4.465C1 4.465 3.58547 7.93 6.775 7.93Z" stroke="#3A3A3A" stroke-linejoin="round"/>
<path d="M6.77773 5.9085C7.16064 5.9085 7.52786 5.75639 7.79862 5.48563C8.06938 5.21488 8.22148 4.84765 8.22148 4.46475C8.22148 4.08184 8.06938 3.71462 7.79862 3.44386C7.52786 3.1731 7.16064 3.021 6.77773 3.021C6.39483 3.021 6.0276 3.1731 5.75685 3.44386C5.48609 3.71462 5.33398 4.08184 5.33398 4.46475C5.33398 4.84765 5.48609 5.21488 5.75685 5.48563C6.0276 5.75639 6.39483 5.9085 6.77773 5.9085Z" stroke="#3A3A3A" stroke-linejoin="round"/>
</svg>
